<svg xmlns="http://www.w3.org/2000/svg" viewBox="0 0 248.147 135.993">
  <defs>
    <clipPath id="a" clipPathUnits="userSpaceOnUse">
      <path d="M0 300.472h300.472V0H0Z"/>
    </clipPath>
  </defs>
  <g clip-path="url(#a)" transform="matrix(1.33333 0 0 -1.33333 -88.735 287.807)">
    <path fill="#000000" d="M88.263 66.36c.047-.094.047-.14.047-.187.423.046 1.127.234 3.523 1.878-2.49-1.362-3.148-1.644-3.57-1.69m-.235 13.808c-1.127-.375-1.785-.892-1.973-1.455.61.516 1.268 1.033 1.973 1.455m-1.174-3.617c.235-.28.517-.516.799-.752.657-.563 1.502-.986 2.207-1.455.939-.705 1.973-1.362 2.678-2.349 1.22-1.69 1.455-3.663.093-5.307-1.41-1.69-3.664-2.725-5.824-2.678-.705-.752-2.677-1.033-2.772-.234-.046.375-.14.656-.233.986-.331.047-.612.141-.894.188a7.338 7.338 0 0 1-.986.234c-.423.095-.563.236-.563.424a2.98 2.98 0 0 0-.612.47c-.375.375-.046.704.47.985-.516.61 1.879 1.598 2.678 1.27l1.456-.706c1.643.094 4.274.282 4.556 1.878.235 1.504-2.866 3.242-3.852 3.9-1.597 1.08-3.945 2.63-3.57 4.931.236 1.786 1.88 2.82 3.899 3.382 2.067.846 4.604.986 6.247.704.282-.046.47-.14.517-.235.094-.047.187-.047.282-.047 1.409-.186-.188-1.315-.8-1.502-1.878-.658-4.414-2.208-5.494-3.85a.482.482 0 0 0-.282-.237M108.927 64.2c0-.94-2.82-1.551-2.82-.377v.095c-.233.094-.421.234-.468.469-.235 2.724-.281 5.213-.281 7.609-.66-.093-2.443-.234-3.242-.422 0-2.537-.281-5.026-1.126-7.093-.047-.094-.095-.14-.19-.234-.328-.893-2.723-1.316-2.723-.517v.657c-.61 2.396-.235 5.12-.141 7.563.188 3.334.376 6.575.47 9.863.094.892 2.442 1.409 2.818.517.094-.282.234-.61.422-.893.094-.281-.093-.563-.422-.751.282-.047.516-.188.516-.424.095-2.065.33-4.507.376-6.951.893.236 2.208.471 3.242.705 0 2.161 0 4.274-.142 6.529-.047 1.08 2.724 1.691 2.819.799v-.047c.094-.047.14-.141.14-.283.61-5.542.846-11.178.752-16.814m9.58 6.058c-.517 2.02-.986 4.04-1.456 6.014a72.156 72.156 0 0 1-1.08-6.719Zm2.114-8.172c-.752 1.925-1.363 4.32-1.832 6.763-.846-.235-1.644-.47-2.49-.658-.188-.046-.328-.046-.47-.046-.14-1.034-.234-2.16-.328-3.288-.14-1.08-2.96-1.174-2.818-.283.61 7.33 1.362 12.307 3.006 17.098.282.847 2.583.987 2.818.047.235-.846.47-1.737.75-2.677.565 0 1.082-.188 1.129-.61.14-.894.282-1.833.47-2.772a.574.574 0 0 0-.188-.422 65.31 65.31 0 0 1 .563-4.087c1.034 0 1.879-.706.423-1.316-.046 0-.094-.046-.141-.046.563-2.49 1.174-4.931 1.785-7.047v-.045l.047-.189c.282-.846-2.442-1.222-2.724-.423m17.049.8c-.987.235-4.37 5.025-6.39 7.42-.235.283-.047.564.282.8 0 .047 0 .093-.047.14-.093.188-.234.376-.374.564-.47-2.677-.893-5.355-1.316-8.031-.141-.846-2.677-1.41-2.63-.33.095 3.053.235 6.106.517 9.113.045 3.1 0 6.2-.612 9.159-.234.939 2.444 1.55 2.632.657.75.094 1.267 0 1.267-.563-.094-1.691-.189-4.322-.282-6.013h.516c.564.518 1.127 1.034 1.738 1.504.658.657 3.383 2.489 3.9 3.006.61.563 3.193.657 2.112-.423a224.722 224.722 0 0 0-3.288-3.382c.095-.095.048-.33-.235-.563-.892-.752-1.784-1.457-2.724-2.207h.141c.564.139 1.221.093 1.41-.33 2.395-4.65 2.349-3.853 5.542-7.046.33-.33.048-.658-.376-.892-.094-.141-.188-.282-.375-.377.281-.375.61-.703.892-1.08.752-.94-1.785-1.314-2.3-1.126m17.375 1.315c0-.94-2.819-1.551-2.819-.377v.095c-.234.094-.422.234-.469.469-.235 2.724-.282 5.213-.282 7.609-.658-.093-2.442-.234-3.24-.422 0-2.537-.282-5.026-1.128-7.093-.047-.094-.095-.14-.188-.234-.329-.893-2.725-1.316-2.725-.517v.657c-.61 2.396-.234 5.12-.14 7.563.187 3.334.376 6.575.47 9.863.094.892 2.442 1.409 2.818.517.094-.282.234-.61.422-.893.094-.281-.094-.563-.422-.751.282-.047.516-.188.516-.424.095-2.065.33-4.507.376-6.951.893.236 2.208.471 3.241.705 0 2.161 0 4.274-.14 6.529-.048 1.08 2.723 1.691 2.818.799v-.047c.094-.047.14-.141.14-.283.61-5.542.846-11.178.752-16.814m9.579 6.058c-.517 2.02-.986 4.04-1.456 6.014a72.156 72.156 0 0 1-1.08-6.719Zm2.114-8.172c-.752 1.925-1.362 4.32-1.832 6.763-.845-.235-1.644-.47-2.49-.658-.188-.046-.328-.046-.469-.046-.14-1.034-.235-2.16-.329-3.288-.14-1.08-2.959-1.174-2.818-.283.611 7.33 1.362 12.307 3.006 17.098.282.847 2.583.987 2.818.047.235-.846.47-1.737.752-2.677.563 0 1.08-.188 1.127-.61.142-.894.282-1.833.47-2.772a.574.574 0 0 0-.188-.422 65.31 65.31 0 0 1 .563-4.087c1.034 0 1.88-.706.423-1.316-.046 0-.094-.046-.14-.046.563-2.49 1.173-4.931 1.785-7.047v-.045l.046-.189c.282-.846-2.442-1.222-2.724-.423m14.935 6.483c0 .8-.282 1.314-.846 1.55l-.188-.14c.282-.283.47-.659.329-1.082-.33-1.222-.47-2.302-.422-3.569v-.047c1.409.751 1.784 1.831 1.127 3.288m-1.127 8.642-.142.33c-.188-.659-.422-1.269-.61-1.879.61-.048 1.08-.282.798-.894a18.883 18.883 0 0 0-1.644-2.864c.47.14.939.234 1.41.281.798 1.503.61 3.758.188 5.026m-2.49.845c.47.282 1.128.47 1.644.47-.516.423-1.128.142-1.644-.47m1.033-8.688c-.422-.142-.845-.189-1.268-.236l.14-2.537c.377.941.846 1.974 1.128 2.773m-2.818-6.624c-.563 0-1.127.33-.8.94.048.14.143.235.19.375-.33.047-.564.19-.611.47l-.094.657c-.423 0-.752.142-.8.471-.327 1.925-.61 4.321-.563 6.67a182.994 182.994 0 0 0-.375 8.877c0 1.033 2.583 1.88 3.006.8l.423-1.224a.354.354 0 0 0 .094-.234v-2.63c1.174 3.382 2.77 3.898 4.086 3.428 3.147-1.174 3.852-6.247 2.395-8.83a4.08 4.08 0 0 0-.375-.61c.94-.377 1.69-1.176 2.019-2.442 1.269-4.51-5.307-6.67-8.595-6.718m23.201 1.08h-.705l-6.763-.703c-.282-.048-1.08-.048-1.175.422a30.219 30.219 0 0 0-.422 5.026c-.329 0-.517.141-.563.422a141.304 141.304 0 0 0-1.08 9.91c-.048.471.234.799.703.894.752.14 1.832-8.079 1.927-8.079.234 3.005-1.316 9.018-1.362 9.393-.142.847 1.362 1.128 1.925 1.128h1.315c.282.141.516.188.704.188h5.026c.564 0 .8-.141.8-.376.844-.375-.705-1.55-1.645-1.455-.517 0-1.08.046-1.644.046-1.174.047-2.348.047-3.523.047.376-2.396.611-4.792.752-7.234 1.221.095 2.442.142 3.664.095.657 0 .845-.189.797-.47 1.74.094.752-1.362-.515-1.551a17.45 17.45 0 0 0-3.805-.141c0-.516.047-1.033.047-1.596.14-.328.235-.705.33-1.08.045-.236-.048-.471-.284-.657v-2.396c0-.235-.188-.424-.516-.61.047-.047.047-.142.047-.236.235.189.516.328.798.422.188.142.423.236.61.282l.66.142c.47.093.844.093 1.08-.047 1.408 0 2.817-.095 4.18-.235 1.596-.189-.706-1.551-1.363-1.551m16.391 0h-.705l-6.763-.703c-.282-.048-1.08-.048-1.175.422a30.219 30.219 0 0 0-.422 5.026c-.33 0-.517.141-.564.422a141.9 141.9 0 0 0-1.08 9.91c-.047.471.235.799.704.894.752.14 1.832-8.079 1.925-8.079.235 3.005-1.314 9.018-1.36 9.393-.142.847 1.36 1.128 1.925 1.128h1.314c.282.141.517.188.705.188h5.026c.563 0 .799-.141.799-.376.845-.375-.704-1.55-1.644-1.455-.518 0-1.081.046-1.644.046-1.174.047-2.348.047-3.523.047.376-2.396.61-4.792.752-7.234 1.22.095 2.442.142 3.663.095.658 0 .846-.189.798-.47 1.739.094.752-1.362-.516-1.551a17.44 17.44 0 0 0-3.804-.141c0-.516.047-1.033.047-1.596.14-.328.235-.705.328-1.08.047-.236-.047-.471-.282-.657v-2.396c0-.235-.188-.424-.516-.61.047-.047.047-.142.047-.236.235.189.516.328.798.422.188.142.423.236.61.282l.659.142c.47.093.845.093 1.08-.047 1.409 0 2.818-.095 4.18-.235 1.597-.189-.705-1.551-1.362-1.551m22.12 16.065c-1.784.046-3.616.046-5.402 0 .705-4.65.517-9.254.19-13.998 0-.28-.33-.563-.753-.751v-.986c0-.94-2.912-1.504-2.96-.612-.14 2.82-.187 5.732-.14 8.549 0 2.302-.329 5.026.47 7.234 0 .094.047.189.094.282l-6.576.424c-.377.046-.564.093-.705.186-1.409.047-.329 1.176.705 1.55.422.236.892.376 1.127.423 2.583.048 5.167-.047 7.75-.187.611 0 1.221-.047 1.88-.094 1.831-.047 3.615-.141 5.447-.284 2.02-.186-.046-1.736-1.127-1.736"/>
    <path fill="#000000" d="m114.452 118.094.024-.02-.008.019-.016.001m4.151 5.516c-.22.03-.19.19-.2.32.1-.02.21-.03.35-.05-.06-.12-.11-.2-.15-.27m1.21-5.52c.37.42.72.8 1.05 1.19.18.21.33.44.5.66.008-.006.013-.013.023-.018 0 .012-.003.022-.005.034-.007-.004-.01-.01-.018-.013 0 0 0-.002-.002-.002-.188.09-.218.27-.248.46a15.01 15.01 0 0 0-.71-.382c-.16-.09-.3-.069-.4.101.07.64.49 1.07.98 1.41.74.5 1.2 1.24 1.78 1.87.29.32.55.67.84 1 .48.52.96 1.04 1.47 1.58.14.06.32.14.53.22.13.51.37.96.71 1.35.09.1.08.29.12.44-.04.04-.09.08-.13.12.04.03.09.08.12.11-.03.11-.06.22-.1.39l-.91-.44c-.37-.51-.7-.96-1.03-1.41-.92-.39-1.5-1.14-2.07-1.81.03-.24.04-.39.06-.55-.23-.03-.4-.06-.57-.08-.07-.17-.13-.32-.17-.42-.45-.38-.95-.42-1.44-.49-.03.06-.07.1-.06.12.35 1.01 1.3 1.59 1.77 2.49.46.28.9.56 1.12 1.06.07.36.15.72-.33.95-.84-.64-1.42-1.58-2.27-2.26-.2-.08-.42-.16-.72-.27-.17-.69-.8-1.06-1.3-1.55-.52-.42-1.04-.84-1.52-1.23-.11-.3-.21-.56-.25-.69-.57-.48-1.04-.89-1.5-1.29.02-.1.05-.21.06-.29.19-.15.54.21.56-.19-.4-.47-.77-.92-1.15-1.36-.13-.02-.32.07-.37-.25l.24-.56c.3-.03.6-.06.93-.09.23.18.47.38.66.53.33.7.62 1.33.91 1.94.36.12.69.22 1.03.33.15-.16.3-.31.45-.45-.3-.48-.57-.91-.87-1.4a5.998 5.998 0 0 0-.39-.2c-.3-.53-.56-.97-.81-1.43-.22-.39-.3-.78-.04-1.3.21.24.4.39.52.58.33.5.62 1.02.94 1.53.46.74 1.08 1.34 1.76 1.9.37-.66-.08-1.19-.2-1.75.2-.09.35-.14.45-.19"/>
    <path fill="#000000" d="M113.853 122.37c-.09-.21-.21-.41-.38-.75-.36.55-.36.55.23 1.12.2-.06.2-.23.15-.37m.71-1.8c.19.06.37.11.54.17l.005-.017a.137.137 0 0 1 .023.019v.007c-.01-.003-.02-.006-.028-.01-.04.11-.08.21-.12.33.9 1.86 2.48 3.17 3.8 4.64.38.22.73.41 1.05.59.11.3.21.56.27.75.59.65 1.12 1.24 1.67 1.85-.2.12-.36.2-.51.28.03.13.05.24.08.34-.53.01-.71-.59-1.17-.69-.19.04-.37.08-.55.11-.29-1.13-.34-1.23-1.08-2-.28-.29-.55-.59-.85-.85-.63-.56-1.13-1.22-1.58-1.85-.27-.12-.5-.2-.69-.32-.2-.13-.38-.29-.55-.45-.14-.15-.13-.48-.46-.41-.02.09-.08.19-.05.23.32.59.59 1.23 1 1.74.59.75 1.29 1.42 1.96 2.1.54.54.96 1.16 1.3 1.84.16.32.36.61.51.84.23.06.36.1.52.14-.19.38-.42.64-.87.72-.09-.06-.27-.1-.35-.21-.46-.65-.96-1.28-1.3-1.99-.21-.45-.49-.81-.81-1.16-.24-.27-.56-.49-.71-.8-.34-.67-.87-1.12-1.45-1.47-.28-.72-.55-1.38-.8-2.03-.3-.2-.57-.37-.86-.56-.17-.56-.73-.78-1.16-1.17-.03-.19-.07-.38-.07-.58 0-.22-.27-.42-.04-.72.11-.01.25-.01.4-.02.42.4.82.79 1.18 1.14.33.07.61.17.8-.2-.18-.57-.54-1.12-.54-1.81.54-.13.85.23 1.24.39.08.37.16.71.25 1.09m6.787 8.98-.007-.026c.01 0 .017.003.027.003zm3.073-6.869c-.04.09-.09.19-.15.32.12.19.25.4.37.61.27-.01.53-.03.6-.38-.18-.32-.53-.38-.82-.55m.93 2.22c-.21-.38-.46-.82-.71-1.27-.14-.04-.31-.06-.42-.15-.84-.69-1.69-1.38-2.51-2.1-.28-.25-.6-.52-.58-.969-.007.004-.012.01-.02.014a.313.313 0 0 1 .005-.03.11.11 0 0 1 .015.008v.005c.18-.1.23-.269.25-.449.33.14.56.38.68.72-.04.04-.09.08-.12.11.04.05.09.09.14.14l.21.21.03-.23c.06-.07.13-.15.22-.259l-2-2.84c-.22-.13-.46-.27-.68-.41-.11-.49-.22-.95-.28-1.22.15-.81.27-1.44.43-2.32.05.65.08 1.04.1 1.41.19.19.36.35.51.5-.15.51.14.86.41 1.2.75.97 1.48 1.97 2.28 2.9.62.72 1.22 1.48 2.05 1.98.06.04.11.12.15.17.13.34.26.67.37.96.22.19.4.35.58.51.04.24.08.48.12.71.22.45.61.81.74 1.35-.16.07-.3.13-.4.18l-1.57-.83m31.31 70.16c-.22.03-.19.19-.2.31.1-.01.2-.02.35-.04-.06-.12-.11-.2-.15-.27m1.82 2.16c-.2-.08-.42-.16-.72-.27-.17-.69-.8-1.07-1.3-1.55-.52-.42-1.04-.84-1.52-1.23-.11-.3-.21-.56-.26-.69-.56-.48-1.03-.89-1.49-1.29.02-.11.04-.21.06-.29.19-.15.54.2.56-.19-.4-.48-.77-.92-1.15-1.37-.13-.02-.32.08-.37-.24.06-.14.15-.35.23-.558h-.012l.024-.02-.007.017c.308-.03.607-.06.935-.09.23.18.47.38.66.53.32.69.62 1.33.91 1.94.36.12.69.22 1.03.33.15-.16.3-.31.44-.45-.29-.48-.56-.92-.87-1.4-.1-.06-.27-.15-.38-.2-.3-.53-.56-.98-.81-1.43-.22-.39-.3-.79-.05-1.3.22.24.4.39.53.58.32.5.62 1.02.94 1.52.46.75 1.08 1.35 1.76 1.91.37-.66-.09-1.19-.2-1.75.2-.09.34-.15.45-.19.37.42.72.8 1.05 1.19.18.21.33.439.498.659.01-.005.014-.012.024-.016 0 .01-.004.02-.005.032-.007-.003-.01-.01-.019-.012v-.001c-.188.09-.218.27-.248.449-.24-.12-.47-.25-.71-.37-.16-.09-.3-.08-.4.1.07.64.49 1.07.98 1.41.74.5 1.2 1.24 1.78 1.87.29.32.55.67.84 1 .47.52.96 1.04 1.46 1.58.15.06.33.13.54.22.12.51.36.95.71 1.34.09.11.08.3.12.45-.04.04-.09.08-.13.11l.12.12c-.03.11-.06.22-.1.39l-.91-.44c-.37-.51-.7-.96-1.03-1.41-.92-.39-1.5-1.14-2.07-1.82.03-.23.04-.38.06-.54-.23-.03-.41-.06-.57-.08-.07-.17-.13-.32-.17-.42-.45-.38-.95-.42-1.45-.49-.02.06-.06.1-.05.12.35 1.01 1.3 1.59 1.77 2.48.46.29.89.57 1.12 1.07.07.36.15.72-.33.95-.84-.65-1.42-1.58-2.27-2.26"/>
    <path fill="#000000" d="M151.763 194.19c.2-.06.2-.23.14-.37-.08-.21-.2-.42-.37-.75-.36.55-.36.55.23 1.12m-2.07-2.78c.42.4.82.79 1.18 1.13.33.07.61.18.8-.2-.18-.56-.54-1.11-.54-1.8.54-.13.85.22 1.24.39.08.37.16.71.25 1.09.19.06.36.11.54.17-.04.11-.08.21-.12.33.9 1.86 2.48 3.17 3.8 4.64.38.21.73.41 1.05.59.11.3.2.56.27.75.59.65 1.12 1.24 1.67 1.85-.2.11-.36.2-.51.28.03.13.05.23.08.34-.53.01-.71-.59-1.17-.69-.19.04-.37.08-.55.11-.29-1.13-.34-1.24-1.09-2.01-.27-.28-.54-.58-.84-.84-.63-.56-1.13-1.22-1.59-1.85-.26-.12-.49-.2-.69-.33-.19-.12-.37-.28-.54-.45-.14-.14-.13-.47-.46-.4-.02.09-.08.18-.05.23.32.59.59 1.23 1 1.74.59.75 1.28 1.42 1.96 2.1.54.54.96 1.16 1.3 1.84.16.32.36.61.51.84.23.06.36.1.52.14-.2.38-.42.64-.87.72-.09-.06-.27-.1-.35-.21-.46-.65-.96-1.29-1.3-1.99-.22-.45-.49-.81-.81-1.16-.24-.27-.56-.49-.72-.8-.33-.67-.86-1.12-1.44-1.47-.28-.72-.55-1.39-.8-2.03-.31-.2-.57-.37-.86-.56-.17-.56-.73-.78-1.16-1.17-.03-.19-.07-.38-.07-.58 0-.23-.27-.42-.04-.72.11-.01.25-.01.4-.02m9.715 9.587-.006-.026c.01 0 .017.003.027.003z"/>
    <path fill="#000000" d="m153.189 192.197-.027-.009.006-.017a.398.398 0 0 1 .022.02l-.001.006m9.294 1.933c-.04.09-.09.19-.15.32.12.19.24.4.37.61.27-.01.52-.03.6-.38-.18-.32-.54-.38-.82-.55m.22.95c-.15-.04-.31-.06-.42-.15-.85-.69-1.69-1.38-2.51-2.11-.28-.24-.6-.51-.58-.96-.008.004-.012.01-.021.015 0-.011.003-.021.004-.031l.016.008v.008c.18-.1.23-.27.25-.46.33.15.56.39.68.73-.04.03-.09.08-.13.11.04.04.09.08.12.12.08.07.16.15.24.22l.03-.22c.06-.07.13-.15.22-.26l-2-2.84c-.22-.13-.46-.27-.68-.41-.11-.49-.22-.95-.28-1.22.15-.82.27-1.44.43-2.32.05.65.07 1.04.1 1.41.19.19.35.35.51.5-.15.51.14.85.4 1.2.76.97 1.49 1.97 2.29 2.9.62.72 1.22 1.48 2.05 1.98.06.04.11.12.15.17.13.34.26.67.37.95.22.2.4.36.58.52.04.24.08.48.12.71.22.45.61.81.74 1.34-.16.08-.31.14-.4.18-.53-.27-1.02-.53-1.57-.82-.21-.38-.46-.82-.71-1.27m-31.462-56.74.02-.024a.169.169 0 0 0-.008.024Zm-1.345 17.455-.023.02c0-.008-.004-.013-.004-.021h.027m-63.323-2.125.023.037-.044-.013Zm47.287 40.637-.036-.03.022-.02.014.05m-6.815-27.802-.021-.024.02.022.001.002m27.053 29.231-.023.02a.17.17 0 0 0-.005-.023c.01 0 .018.003.028.003"/>
    <path fill="#000000" d="M81.533 159.18c-.04.3-.08.6-.11.87.19.31.36.57.56.88.43.2.93.38 1.39.64.46.25.88.58 1.38.91l.32-.58c-.52-.57-1.04-1-1.79-1.1-.45-.55-.91-1.11-1.36-1.67-.11.02-.22.03-.39.05m-7.87-1.15c-.22.33-.13.54.14.78.09-.06.19-.13.35-.24-.19-.2-.33-.36-.49-.54m12.78 5.92c.38 0 .4-.19.3-.47-.28-.03-.32.15-.3.47m1.12-.49c.28.12.56.24.81.35.21-.12.25-.26.15-.39-.24-.29-.47-.58-.74-.91-.11.06-.27.15-.49.27.1.25.18.46.27.68m1.39-8.21c.23.77.65 1.46 1.23 2.06.76.78 1.38 1.69 1.97 2.6.43.67 1.04.98 1.58 1.42.28-.31.25-.6.14-.85-.36-.83-.71-1.65-1.2-2.41-.33-.52-.81-.96-.92-1.62-.36-.4-.72-.79-1.09-1.19-.18-.2-.38-.38-.56-.58-.13-.14-.24-.31-.38-.43-.82-.69-1.65-1.37-2.48-2.07-.11.51-.04.78.57 1.68.33.48.74.91 1.14 1.39m.52 6.81c.2.19.46.18.73.33-.17-.67-.4-.94-1.27-1.54.21.47.37.84.54 1.21m1.08 2.53c.05-.17.08-.31.12-.46-.12-.07-.21-.12-.34-.19-.05.17-.08.31-.12.46.12.07.21.11.34.19m-3.54-15.33c-.02-.18-.03-.37-.05-.55-.12.03-.25.07-.38.1.04.41.15.72.43.95.22-.18.01-.34 0-.5m36.93 50.04c0-.43-.21-.66-.62-.69.13.31.33.54.62.69m.69.73c.02-.44-.02-.49-.64-.68.12.31.32.55.64.68m3.47 1.21c-.01-.23-.14-.32-.36-.3.06.29.06.29.36.3m4.5-4.63c.08.05.2.04.31.05-.02-.11-.01-.25-.07-.32-.34-.36-.7-.7-1.05-1.04-.05.06-.09.11-.16.2.23.44.55.82.97 1.11m-.28 1.21c.02.06.1.1.34.29-.09-.3-.11-.4-.16-.49-.03-.05-.11-.06-.22-.12.01.13 0 .24.04.32m2.47.95c.07-.04.16-.1.23-.15.01-.28-.13-.37-.4-.39-.14.29-.05.43.17.54m-7.16-4.28c.08.34.3.4.58.32-.09-.37-.09-.37-.58-.32m-1.29-.52c-.22.16-.12.3-.03.41.18.24.39.45.7.45-.11-.39-.44-.59-.67-.86m-30.17-28.82c-.09-.64-.09-.64-.94-1.3-.03.06-.08.14-.07.19.13.53.67.59 1.01 1.11m1.64 1.44c.15-.24.14-.42-.17-.49-.23.28-.07.4.17.49m1.92-3.44c.43.59.86 1.19 1.5 1.65.15-.06.31-.12.52-.21l-1.88-2.09c-.34.22-.27.48-.14.65m3.48.1c-.07-.12-.14-.24-.23-.39-.09.28-.08.3.23.39m1.34 1.96c.09-.1.17-.21.27-.32-.31-.8-1.05-1.08-1.57-1.59l-.01.45c.47.43.66 1.12 1.31 1.46m.7 1.15c.18-.26.3-.44.42-.61-.07-.23-.2-.4-.42-.48Zm3.42.99c.32.48.7.9 1.16 1.3.06-.5.06-.5-.73-1.61l-.48-.01c.01.11 0 .24.05.32m1.24-3.34c-.06.01-.12.03-.19.05.06.09.12.17.31.47-.08-.34-.1-.43-.12-.52m3.09 1.59c.31.5.58 1.09 1.2 1.33.1-.06.19-.11.27-.16-.01-.1.01-.2-.03-.25-.47-.62-.95-1.22-1.6-1.66-.27-.19-.49-.48-.71-.71-.01-.26-.01-.45-.02-.64-.47-.21-.95-.42-1.47-.65-.04.15-.07.29-.1.39.87 1.2 1.02 1.34 2.46 2.35m1.36 4.66c.23-.1.46-.19.76-.31-.07-.22-.08-.42-.17-.57-.16-.27-.34-.52-.55-.75-.61-.69-1.3-1.3-1.87-2.04-.43-.54-1-.95-1.52-1.41-.1-.09-.25-.12-.38-.18 1.06 1.91 2.2 3.71 3.73 5.26m1.06-4.3c-.2-.43-.47-.81-.96-.96-.09.07-.18.13-.26.18.02.1 0 .21.05.25.33.31.68.61 1.02.9.23-.06.21-.24.15-.37m1.35 1.88c.4.46.39 1.09.99 1.33.13-.37.25-.69.35-.98-.65-.56-1.26-1.08-1.92-1.64-.09.16-.18.32-.24.41.16.56.62.68.82.88m-.24 4.11c.1.01.24.04.37.06.02-.54-.1-.99-.69-1.14-.08.45-.09.46.32 1.08m-.09.95c.3-.19.14-.34-.1-.54-.16.26-.13.42.1.54m6.35.7c.02-.34-.11-.56-.41-.68 0 .31.1.57.41.68m.75.77c-.12.11-.19.18-.32.3.38.15.45.08.32-.3m.47 2.64c.3.34.64.64.98.95.04.04.12.02.2.03l.01-.73c-.25-.16-.52-.3-.75-.48-.2-.15-.32-.43-.61-.44-.11.3.03.51.17.67m4.03 2.15c-.01-.13.01-.24-.04-.31-.11-.21-.3-.3-.52-.29-.02.37.22.5.56.6m7.18 14.55c.19.49.49.85.9 1.14.06-.11.14-.19.12-.22-.24-.41-.55-.74-1.02-.92m-2.81-4.11c-.08-.05-.19-.05-.4-.09.23.34.41.57.54.83.12.23.06.56.42.72.02-.2 0-.38.05-.53.04-.14.26-.18.2-.46-.23-.14-.52-.32-.81-.47m5.01.84c-.09-.35-.11-.44-.13-.53-.06.02-.13.04-.19.05.06.09.11.17.32.48m.29 1.79c.12-.08.2-.14.35-.23-.15-.16-.24-.33-.38-.42-.13-.08-.28-.28-.52-.04.18.22.36.45.55.69m-.22.95c.12-.14.17-.19.19-.21.02-.35-.18-.46-.37-.59-.08.25-.08.25.18.8m-52.94-33.41c.92.82 1.78 1.58 2.65 2.36.41-.18.85-.14 1.19-.55.1-.62.17-1.28.04-1.96-.35-.12-.66-.22-1.01-.33.02-.15.04-.3.05-.4.23-.22.42-.39.59-.56-.27-.87-.82-1.49-1.26-2.22.14-.17.26-.3.38-.44.25.03.46.05.68.08-.01-.11.01-.2-.02-.25-.58-.74-.79-1.71-1.39-2.44-.14-.17-.18-.44-.25-.66-.15-.49-.29-.99-.42-1.44.07-.27.13-.49.18-.73-.58-.41-1.25-.68-1.52-1.48.11-.17.23-.36.31-.49.57-.08.78.37 1.07.59.4-.05.52-.52.93-.54.08.13.15.26.23.39.39.25.66.62.89 1.02.28.49.64.89 1.04 1.07.41.61.68 1.23 1.13 1.62.61.51 1.1 1.06 1.43 1.81.07.17.25.29.34.47.32.62.91 1.08 1.05 1.78-.01.22-.03.41-.05.63l.93.61c.26-.06.43-.1.59-.14.41.7.79 1.33 1.19 2.02.69.26 1.23.86 1.97 1.09.42.13.67.51.91.87.15.22.28.47.46.67.08.1.24.13.38.2.12-.56.12-.56-.71-1.98.04-.14.11-.32.15-.44.39-.22.71-.25 1.07.04.07.21.16.46.27.78.29.2.43.71.94.7.39-.3.79-.6 1.16-.87l.56.02c.41.26.63.62.86.99.35.57.75 1.11 1.45 1.27.64 1.45 1.9 2.36 2.75 3.63.19.28.49.45.85.44-.11-.24-.19-.51-.33-.72-.61-.86-1.25-1.7-1.97-2.44-.41-.41-.74-.89-1.13-1.33.09-.1.16-.19.24-.27.65.18 1.01.67 1.32 1.24.05.1.14.18.2.25l.39.01c.77.89 1.67 1.69 2.2 2.84l.43-.16c.15-.76-.05-1.34-.37-1.97-.48-.97-1.06-1.82-1.85-2.52-.12-.1-.22-.22-.31-.34-.06-.08-.07-.19-.11-.31.29-.08.48.03.65.2.54.5 1.07 1.01 1.61 1.5.1.09.25.12.36.17.08-.12.15-.19.15-.26-.01-.27-.01-.55-.06-.82-.04-.24.02-.37.23-.42.53.48 1.05.93 1.56 1.4.13.12.22.3.33.45.49.41.99.82 1.5 1.24.24-.18.45-.34.67-.5.24.08.45.16.66.23.22.07.44.12.7.19.28.61.49 1.35 1.3 1.46.09-.16.18-.33.28-.5.12 0 .23-.01.39-.01.68.65 1.38 1.3 2.08 1.98.3.3.59.61 1.04.65.1.01.2-.01.3-.01.05.27.1.5.16.81.44.46.94.95 1.42 1.46.49.53.85 1.21 1.52 1.67.11-.19.2-.34.3-.51-.69-.78-1.34-1.5-1.98-2.23-.31-.34-.65-.67-.79-1.15-.03-.1 0-.21.01-.41.18.08.35.09.43.19.71.89 1.65 1.51 2.49 2.24.44.38.91.69 1.17 1.25.07.14.23.2.44.04.05-.31.1-.67.15-1.04.13.33.14.64.12.96-.02.64.21 1.16.62 1.61.39.43.74.92 1.14 1.33.44.44.92.82 1.03 1.51 0 .04.04.06.11.16.18.14.42.33.64.5.36.55.63 1.18 1.08 1.56.51.43.63 1.08 1.06 1.53.26.27.44.63.63.98.72 1.3 1.47 2.58 2.4 3.73.19.2.57-.04.71.35-.05.07-.11.14-.17.22.25.22.49.45.73.66.13-.1.21-.18.33-.29.08.13.16.24.22.33-.06.25-.1.43-.13.59.22.46.36.93.64 1.28.53.67.93 1.43 1.39 2.15.04.06.05.15.08.23.03.37-.01.71-.47.84-.06-.06-.13-.12-.2-.19v.01c-.2-.05-.41-.09-.72-.16.43.74.8 1.36 1.17 1.99.02.03.05.06.07.09.3.45.6.9.89 1.35.02.05-.03.15-.05.28-.22.06-.47.12-.74.2a10.65 10.65 0 0 0-.25-.4c-.007.004-.012.01-.022.014l.022-.024.004.006c.144-.079.144-.168-.014-.257-.08-.07-.14-.14-.2-.21-.09-.14-.18-.279-.34-.52-.07.25-.11.37-.14.491-.09.05-.18.11-.28.17.13.39.22.68.31.96.75.63 1.21 1.44 1.67 2.2.02.32-.02.54-.34.68-.22-.23-.45-.49-.7-.71-.28-.24-.59-.44-.9-.67.13-.08.25-.15.41-.23l-.13-.46c-.22.03-.4.04-.58.08-.19.05-.44-.25-.62.16.23.54.44 1.13.89 1.59.13.14.26.3.35.47.23.44.44.9.66 1.36-.44.06-.44.06-1.21-.88-.15-.31-.09-.74-.48-.95-.06.43-.11.82-.17 1.22-.15.08-.28.14-.45.23-.13-.51-.25-.96-.36-1.38.08-.35.14-.65.2-.92-.39-.46-.77-.86-1.09-1.3-.66-.91-1.2-1.93-2.14-2.58-.15-.1-.26-.29-.37-.45-.29-.41-.57-.83-.87-1.24-.03-.04-.13-.03-.25-.04-.07.29-.13.6-.23 1.05-.14-.76-.26-1.37-.37-1.98-.06-.32-.49-.54-.21-1.03.14-.02.32-.05.48-.08.2.16.37.3.53.44.32-.18.21-.41.11-.65-.22-.18-.45-.37-.66-.54-.1-.41-.15-.76.23-1.08.25.09.53.18.9.31.03.61.61.79.93 1.14.08.33.14.59.21.88.27-.07.49-.12.72-.18.16.09.36.14.5.27.48.43.95.89 1.45 1.38.05-.15.09-.25.12-.34-.62-.96-1.45-1.62-2.36-2.17-.19-.32-.42-.6-.54-.93-.18-.46-.46-.82-.74-1.19-.04-.06-.03-.15-.04-.25.07-.07.15-.15.25-.21.13-.07.27-.12.42-.18.64.52 1.18 1.16 1.87 1.34.35.41.61.75.9 1.05.1.1.28.11.42-.06-.03-.1-.04-.24-.11-.31-1.04-1.03-1.98-2.18-3.16-2.94-.15-.26-.27-.47-.36-.64-.47-.19-.89-.36-1.28-.52-.7-1.41-.7-1.41-1.38-1.77-.29.06-.54.11-.73.14-.67-.58-1.28-1.12-1.87-1.64-.37-.12-.73-.23-1.14-.36-.08.48-.15.88-.25 1.4-.99-.98-1.42-2.29-2.41-3.12-.34-.03-.69.42-1.19-.13-.24-.37-.59-.92-1.01-1.39-.28.06-.5.11-.71.15-.42-.58-.26-1.33-.55-1.97-1.07-.3-1.53-1.36-2.32-2.02-.28-.11-.55-.22-.82-.33.02.14.02.31.09.42.53.81 1.01 1.67 1.66 2.39.2.23.34.52.49.79.03.06 0 .15-.01.29-.09.05-.21.12-.35.21l-.5-.5.02-.65c-.65-.16-.69-.99-1.25-1.28-.23.3.2.7-.25.9-.27.09-.45-.12-.65-.31-.16-.15-.28-.4-.56-.28-.09.13-.18.27-.29.44-.22-.73-.43-1.41-.64-2.11-.35-.1-.66-.2-1.01-.3-.17-.2-.33-.43-.53-.61-.77-.69-1.52-1.4-2.09-2.3-.18-.29-.44-.52-.83-.52-.22.48-.04.92.23 1.22.61.67 1.04 1.45 1.5 2.22.1.17.25.3.36.45.09.13.16.27.23.4-.05.14-.1.24-.18.46-.93-.72-1.24-1.94-2.11-2.61-.1.07-.19.14-.34.24-.2-.51-.4-1.02-.59-1.47-.33-.49-.63-.94-.94-1.38-.059-.089-.165-.139-.254-.197l.001.007-.019-.025a.041.041 0 0 0 .011.007c-.029-.148-.03-.324-.119-.413-.38-.44-.8-.86-1.2-1.29-.15-.21-.31-.42-.45-.62-.26.04-.47.08-.67.11-.03.3.11.51.29.711.32.35.52.75.57 1.24.89 1.16 1.78 2.32 2.73 3.54.18.1.44.24.74.4-.06.31.17.64-.2.86-.54-.1-.83-.55-1.18-.83l-.91-.02c-.37-.44-.68-.79-.97-1.16-.26-.33-.44-.81-.77-1-.44-.24-.56-.73-.94-1.06-.06.14-.11.24-.16.35.17.31.36.61.5.93.09.2.11.44.16.69-.39.15-.61.53-1.03.51-.18-.57-.34-1.11-.84-1.53-.17-.07-.42-.17-.74-.31-.25-.36-.55-.76-.84-1.18-.21-.32-.41-.65-.78-.79 0 .45.26.78.46 1.15.38.68.72 1.38 1.1 2.13-.18.14-.32.24-.44.32-.82-.41-1.08-1.16-1.3-1.84-.58-.53-1.21-.19-1.82-.41-.01.04-.01.07-.02.1-.16-.05-.34-.09-.51-.09-.05 0-.09.01-.13.02-.5-.15-.99-.31-1.45-.45l-.81-.78-.48-.02c-.14-.36-.03-.85-.61-.99-.18.16-.4.36-.55.5-.18.68.1 1.11.42 1.52 1.04 1.3 2.1 2.61 3.16 3.9.11.13.26.29.48.2.07-.14.13-.27.2-.41.41.43.18 1.03.45 1.54.25.32.55.68.83 1.03.26.91.78 1.66 1.33 2.36.6.77 1.24 1.5 1.72 2.37.08.15.26.24.38.35.25-.15.44-.26.66-.39.36.61.58 1.26 1.07 1.73.66.6 1.21 1.31 1.53 2.16.39.25.74.47 1.07.68.68.94 1.7 1.56 1.98 2.7.82.58 1.42 1.29 1.79 1.91.64.47 1.1.79 1.55 1.15.44.35.56 1.02 1.12 1.26.09-.16.16-.29.27-.5.03.24.02.41.07.55.06.18.15.36.26.52.06.09.17.15.23.2.25-.04.47-.08.57-.1.6.35 1.09.64 1.56.91.17.17.31.41.5.49.35.13.59.33.74.68.05.1.13.2.23.26.43.29.88.56 1.32.84.23.46.45.92.93 1.14.27-.25.35-.67.83-.72.18.24.45.48.6.79.35.71.98 1.09 1.58 1.5.1.07.28.1.38-.18-.27-.24-.55-.48-.82-.72-.29-.44-.56-.86-.83-1.28.06-.14.1-.24.14-.32.36-.15.7 0 .83.24.31.56.93.64 1.26 1.1.17-.11.28-.19.41-.28l.35.7c.98.84 1.82 1.58 2.68 2.3.17.15.37.26.57.38.04.03.12-.02.25-.04-.11-.26-.22-.5-.22-.5-.54-.59-.99-.93-1.25-1.39-.38-.69-.91-1.16-1.54-1.54-.26-.16-.53-.29-.85-.47-.15-.27-.32-.58-.49-.89-.18-.3-.3-.69-.54-.9-.59-.51-.84-1.22-1.14-1.9-.02-.06 0-.15.01-.26.07-.04.16-.09.26-.14.71.37 1.16 1.19 1.99 1.21.27.37.49.69.73.99.1.12.26.17.43-.05-.2-.65-.79-.99-1.22-1.44-.07-.36-.14-.71-.24-1.19.06-.06.16-.17.29-.3.3.25.59.38.69.6.21.42.61.58.88.9.26.3.4.73.59 1.1.17-.11.28-.19.36-.24.36.01.57.52.97.17-.29-.6-.63-1.1-1.03-1.58-.5-.6-.98-1.22-1.28-1.96-.03-.08.03-.21.06-.38.18.1.34.15.42.26.42.55.92 1.03 1.32 1.61.34.52.8.95 1.23 1.4.13.14.33.21.52.07.02-.46-.61-.54-.54-1.04.4.21.8.41 1.19.62.65 1.22 1.94 1.75 2.68 2.7.06.33.11.55.15.77-.28 0-.47-.18-.66-.36-.25-.23-.52-.46-.79-.66-.06-.05-.18-.03-.29-.04.01.1 0 .15.02.17.62.52 1.15 1.13 1.58 1.83.1.15.3.23.44.36.46.41.92.8 1.08 1.48.06.24.31.42.41.55.31.13.55-.17.7.08.18.62.35 1.18.52 1.74-.28.38-.28.38-.69.4-.25-.34-.49-.69-.72-1.02.02-.18.05-.33.07-.52-.17-.09-.33-.18-.46-.25-.14.1-.23.16-.32.22-.6-.38-1.12-.87-1.88-1.31.1.33.16.5.21.67-.39.04-.7-.16-1-.39-.05-.04-.18.04-.35.09a3 3 0 0 0 .84 1.01c.23.19.44.42.65.64.02.03-.04.14-.06.22-.19-.12-.38-.23-.5-.3-.22.01-.37.02-.52.04-.23-.3-.43-.57-.64-.84-.13.04-.27.07-.38.1-.05.8.57 1.15.85 1.7.29.55.67 1.04 1 1.55-.08.09-.12.15-.21.25-.52-.27-.79-.97-1.43-1.09-.15.16-.3.32-.48.5-.17-.28-.44-.53-.42-.75.05-.44-.27-.63-.41-.94-.02-.05-.12-.07-.19-.11-.14.03-.29.06-.44.09-.18-.29-.35-.58-.5-.83-.26-.07-.44-.11-.56.22.08.2.19.44.3.72.96.46 1.42 1.5 2.31 2.14-.01.36-.01.71-.03 1.07-.01.16-.09.3-.35.29-.09-.35-.23-.72-.53-.98-.35-.3-.68-.62-1.04-.91-.24-.19-.51-.32-.82-.51-.21.31-.39.58-.6.88-.15-.16-.3-.29-.41-.44-.23-.36-.44-.74-.65-1.09-.23-.08-.44-.18-.62.05.17.35.33.71.48 1.04-.13.34-.24.63-.34.88-.24.15-.43.27-.63.39-.01.01-.05-.02-.09-.04-.04-.39-.08-.78-.12-1.14-.28-.37-.54-.7-.78-1 .07-.26.11-.44.17-.67-.25-.13-.47-.25-.69-.37-.13.12-.21.2-.32.3.11.33.22.65.31.93-.23.38-.48.48-.88.27-.11-.22-.25-.49-.38-.75-.24-.06-.46-.11-.69-.17-.47-.51-.95-1.02-1.4-1.51-.19-.02-.33-.03-.5-.05-.11-.3-.21-.6-.28-.79-.57-.78-1.28-1.27-1.75-2-.21-.32-.53-.56-.92-.63-.07.05-.15.08-.19.14-.02.03-.03.06-.04.08-.17.56.25.86-.1 1.28-.37-.84-.72-1.62-1.1-2.47-.14-.07-.33-.18-.53-.3-.39.64.22 1.14.19 1.72-.43.06-.66-.21-.72-.49-.12-.54-.47-.89-.77-1.3-.1-.13-.12-.32-.17-.49.19.16.37.33.57.48.05.04.13.04.25.07.07-.16.14-.34.21-.49-.28-.63-.58-1.18-1-1.65-.38-.44-.78-.86-1.07-1.39-.1-.2-.29-.35-.46-.52-.03-.03-.12-.01-.21-.01.16.69.66 1.14 1 1.65.03.24.04.44.06.63.02.19.23.35.03.59-.14-.14-.26-.29-.42-.39a3.66 3.66 0 0 1-1.17-1.27c-.3-.54-.73-1.01-1.06-1.54-.22-.36-.52-.54-.91-.58a5.702 5.702 0 0 0-.88-2.05c-.36-.52-.75-1-1.12-1.51-.22-.31-.47-.6-.75-.88-.72-.69-1.39-1.44-2.1-2.2-.07-.01-.178-.03-.287-.04l.01.016-.025-.022.01.002c-.189-.339-.329-.717-.588-.977-.47-.49-.81-1.05-1.03-1.63-1.2-.97-2.21-2.02-2.55-3.59-.1-.44-.37-.76-.62-1.08-.2.13-.34.22-.53.33-.13-.36-.23-.66-.34-.94-.33-.36-.64-.7-.96-1.04-.53-.579-.96-1.21-1.17-2-.06-.23-.19-.44-.33-.63-.49-.65-1-1.29-1.5-1.94-.14-.17-.29-.36-.6-.34-.11-.16-.24-.3-.37-.44 0-.06-.01-.12-.01-.17-.18-.43-.35-.83-.52-1.21-.38-.41-.76-.8-1.09-1.16-.41-.04-.75-.07-1.06-.1-.19-.13-.34-.24-.4-.28-.77-.11-1.43-.21-2.09-.309-.33-.33-.68-.59-1.13-.75-.78-.28-1.55-.61-2.13-1.31-.24.19-.48.37-.74.57-.5-.32-1-.61-1.46-.95-.2-.15-.33-.42-.37-.47-.75-.24-1.37-.31-1.91-.68-.11.19-.2.35-.32.56-.62-.49-1.22-.97-1.84-1.47-.27.03-.57.05-.87.07-.2-.17-.4-.35-.57-.5-.26-.07-.47-.13-.69-.18-.08-.25-.16-.47-.22-.61-.53-.36-1-.68-1.51-1.03l-.38-.01c-.03.3.12.51.31.71.43.44.85.9 1.32 1.4.17.07.42.17.66.28.14.21.24.42.4.59.06.07.13.12.2.18-.36-.04-.7-.1-1.05-.18-.04-.05-.07-.09-.1-.14-.11-.21-.27-.41-.45-.53-.89-.55-1.59-1.33-2.34-2.06-.31-.04-.61-.08-.97-.13-.47-.76-1.3-1.21-1.77-1.99-.13.01-.25.02-.41.03-.7-.93-1.89-1.23-2.67-2.1-.12-.13-.34-.15-.48-.21-.25-.39-.47-.74-.7-1.08.21.06.43.09.59.22.66.53 1.29 1.09 2.01 1.71.37-.08.67.33 1.04.44.45.13.78.43 1.18.6.39.17.57.66 1.05.69a.91.91 0 0 0 .11-.25c.12.08.22.17.34.24.03.02.05.02.08.04.03.05.05.11.08.18.22-.02.36-.04.49-.06.37.14.48.66.98.61.04-.12.08-.25.13-.42-.39-.29-.75-.57-1.12-.85a.5.5 0 0 0-.22-.4c-.23-.15-.45-.32-.67-.48.01-.09.03-.18.06-.26.15.08.3.17.39.22.21-.01.36-.01.49-.02.91.63 1.79 1.23 2.67 1.84.24-.16.46-.31.74-.48.41.12.84.25 1.22.36.72.89 1.6 1.42 2.54 1.84.02.01.07-.02.16-.06.02-.11.04-.25.06-.38-.75-.16-1.02-.81-1.51-1.28.16-.15.26-.24.36-.33.87.2 1.49.8 2.24 1.22-.06.19-.11.33-.15.47.87.34 1.78.5 2.62.65m164.519 25.37c-.19.46-.07.79.21 1.08.19.19.39.37.72.14-.3-.4-.59-.78-.93-1.22m-1.93-2.44c-.03.02-.07.03-.08.06-.02.07-.03.14-.05.24.4.43.81.87 1.26 1.37-.09-.65-.09-.65-1.13-1.67m.56-1.98c-.04.23-.04.24.24.41 0-.18-.02-.36-.24-.41m-1.28 3.89c-.42-.61-.9-1.17-1.29-1.8-.29-.45-.67-.72-1.06-1.01-.06.06-.12.09-.12.11.02.07.03.15.08.21.83 1.07 1.67 2.13 2.51 3.2.06-.03.11-.06.16-.1-.09-.2-.15-.43-.28-.61m-.93-6.63c-.2.3-.12.38.34.49-.2-.29-.26-.38-.34-.49m-1.13 10.66c.22-.14.23-.14-.2-.86-.11.13-.15.18-.23.28l.43.58m-2.44-1.4c-.03-.17-.08-.4-.12-.63-.63-.57-1.25-1.13-1.92-1.74-.14.31-.27.58-.42.91-.15.08-.35.18-.64.33.33.07.59.12.92.19.73.75 1.69 1.13 2.2 2.01.24.02.45.04.77.08-.29-.43-.53-.77-.79-1.15m.07-1.8c.29.12.34.02.25-.26-.09.1-.16.17-.25.26m-.25-2.25c-.25-.26-.41-.63-.66-1.05-.11.22-.18.34-.23.43.82 1.3.73 1.36 1.5 1.57-.05-.43-.34-.66-.61-.95m-2.22-6.3-.3.15c.04.26.2.29.38.29-.03-.13-.05-.26-.08-.44m-.43 3.09c-.1.03-.2.05-.36.08-.04.28-.07.56-.11.84.53-.07.53-.08.68-.69.14-.07.26-.19.12-.34-.13-.15-.25-.03-.33.11m-.49.96c-.22.12-.29.29-.14.54.24-.13.12-.36.14-.54m3.28 10.04c.07-.27.02-.35-.24-.25.08.09.15.16.24.25m-6.53-17.49c.26.39.42.65.59.9.14.23.28.45.44.69.14-.1.23-.16.34-.25-.16-.69-.58-1.08-1.37-1.34m-5.87-5.73c-.43-.53-.82-1.1-1.41-1.47.07.2.11.42.22.58.31.43.66.83 1 1.23.06.06.18.07.29.09-.03-.15-.02-.33-.1-.43m-3.37-5.62c-.04.35-.01.68.37.88.06-.04.15-.08.23-.13-.08-.38-.28-.61-.6-.75m-.65-.74c.12.32.33.55.62.69-.08-.54-.12-.57-.62-.69m-1.47 6.52c-.08.02-.17.04-.28.07.09.38.3.63.61.77.02-.32-.13-.57-.33-.84m-1.26-7.06c-.02.41.24.63.56.91-.08-.53-.08-.55-.56-.91m-2.02.28c-.18.91.34 1.43.91 1.98.11-.09.21-.18.3-.26-.38-1.02-.46-1.14-1.21-1.72m-1.47.87c-.01.07-.05.15-.03.2.18.29.37.58.52.82.25.06.36 0 .35-.2-.4-.59-.4-.59-.84-.82m.12-2.41c-.08.06-.16.12-.31.24.43.2.41.02.31-.24m-3.63 4.29c-.35-.08-.39.09-.37.45.25.32.45.71.89.87.16-.66-.41-.9-.52-1.32m-.82-4.87c-.14-.02-.24-.05-.34-.07-.04.38-.11.78.31 1.1.09-.17.18-.33.27-.5-.09-.19-.17-.36-.24-.53m-1.33.63c-.33-.83-.84-1.58-1.29-2.36-.07-.12-.22-.2-.32-.28-.43.01-.29.52-.56.65.3 1.02 1 1.75 1.68 2.54.13 1.05.81 1.82 1.37 2.66.18.13.34.3.63.22.11-.43-.25-.81-.16-1.2-.51-.75-1.01-1.42-1.35-2.23m-4.79 2.47c-.1.11-.15.16-.23.26.1.16.2.3.28.42.09 0 .15.02.16 0 .16-.27.16-.27-.21-.68m-1.22-2.03c-.14.28-.03.41.24.46.14-.29.01-.41-.24-.46m-1.01-5.67h-.31l-.02.74c.49.71.94 1.35 1.52 1.89l.03-.86c-.22-.77-.68-1.29-1.22-1.77m-2.59 2.62c-.3.84.38 1.2.56 1.78.17.03.3.06.44.09.05-.82-.35-1.37-1-1.87m-.68-.4-.01.47c.14-.02.23-.03.31-.04.03-.25-.04-.4-.3-.43m3.1 8.32.23.142c-.045-.06-.085-.123-.13-.182-.085-.112-.156-.233-.237-.348.042.115.08.243.138.388m-6.82-6.5c-.14-.04-.25-.08-.36-.09-.06 0-.12.06-.22.11.27.79.71 1.45 1.34 2 .1-.03.19-.06.29-.1-.14-.8-.77-1.26-1.05-1.92m-2.34-1.53c-.09.28-.03.36.24.26-.09-.1-.15-.17-.24-.26m-2.42 1.99c-.94-1.23-1.88-2.46-2.83-3.68-.04-.04-.14-.04-.25-.06-.17.56.1.99.37 1.41.1.17.26.29.39.43.54.6 1.14 1.15 1.54 1.89.1.19.32.32.51.44.13.08.28.05.4-.14-.04-.09-.06-.21-.13-.29m-1.95-5.17c-.29-.12-.6-.24-.91-.36-.03.09-.08.18-.06.21.67.89 1.44 1.68 2.29 2.45.09-.09.14-.13.23-.22-.53-.72-1.03-1.39-1.55-2.08m-2.19 5.82c-.02.41.2.66.54.87.04-.66.04-.67-.54-.87m-.67-.73c.01.44.21.68.64.7-.14-.31-.21-.69-.64-.7m-8.492 2.25c-.08-.01-.19-.02-.28-.03a14.6 14.6 0 0 0-.101.435l.473.015c.082.086.176.156.266.232l-.358-.652m-.31 1.72a.82.82 0 0 0 .053-.014l-.072-.084.019.098m1.41 3.35c.14.1.36.25.44.31.6.83 1.1 1.52 1.61 2.21.08.11.21.18.33.27v-.29c-.38-1.17-1.12-1.94-1.65-2.85-.12-.2-.29-.37-.46-.52-.54-.46-.97-1-1.29-1.64-.05-.09-.17-.15-.31-.27-.09.11-.18.21-.3.35.54.8 1.06 1.58 1.63 2.43m2.88 3.78c-.1-.56-.11-.58-.48-.93.02.36.11.69.48.93m-.81 6.28c-.79-1.38-1.61-2.75-2.63-3.97-.4-.47-.62-1.04-.75-1.66-.14.1-.29.21-.46.33.06.34.1.64.16.98-.05.19-.1.42-.14.63.33.66.74 1.2 1.33 1.63.13.25.26.53.42.84.96.53 1.27 1.68 2.02 2.53.16.02.37.05.58.08 0-.54-.28-.96-.53-1.39m-1.73-4.29c-.07.35.11.49.34.58.01-.25-.03-.48-.34-.58m-2.91 7.83-.014.01c.033.084.07.165.114.243a.308.308 0 0 0-.1-.253m1.907 7.017c-.02-.134-.005-.248-.061-.317a.546.546 0 0 0-.555-.265c.003.382.259.5.616.582m.174-5.477c.07.26.139.53.24.88.12-.14.24-.22.23-.27-.05-.24-.101-.51-.22-.71-.21-.36-.48-.69-.76-1.06-.07.13-.121.21-.17.31.23.29.45.57.68.85m-3.224 3.703c-.268-.15-.555-.276-.804-.446-.216-.142-.357-.422-.657-.414-.094.316.063.523.218.679.33.33.7.618 1.07.915.045.039.126.013.209.018zm-1.896-2.868c-.117.12-.185.197-.311.329.4.13.469.053.31-.33m-1.288-1.417c.02.319.139.58.466.673-.001-.351-.15-.57-.466-.673m-6.79-6.161c-.083.17-.165.34-.222.438.202.565.683.66.902.853.442.448.472 1.097 1.106 1.305.11-.39.214-.726.299-1.031a365.251 365.251 0 0 0-2.085-1.565m.695 5.537c.104.004.25.026.386.038-.014-.557-.166-1.013-.785-1.13-.053.469-.063.48.399 1.092m-.031.983c.297-.215.122-.36-.138-.55-.148.279-.107.44.138.55m-1.496-7.078c-.233-.43-.536-.804-1.051-.926a3.222 3.222 0 0 1-.257.2c.027.103.014.218.068.255.36.299.74.585 1.109.862.234-.077.2-.261.13-.391m-2.73-.967c-.29-.178-.536-.463-.777-.685-.027-.268-.04-.463-.061-.658-.498-.186-1.007-.371-1.558-.575-.032.157-.054.303-.078.408.974 1.18 1.137 1.314 2.686 2.262.353.494.668 1.084 1.323 1.292.099-.07.189-.126.268-.183-.016-.102-.002-.206-.047-.254-.524-.61-1.057-1.196-1.755-1.607m-3.718 2.484-.495.02c.017.112.015.247.072.326.36.473.779.882 1.279 1.264.03-.52.03-.52-.856-1.61m.32-2.697a10.308 10.308 0 0 0-.741-1.107c-.087.007-.17.012-.258.02l-.15-.15c-.07-.07-.07-.21-.1-.32-.48-.01-.61-.53-.95-.76-.19.03-.36.07-.53.09-.136.37.04 1.104.172 1.648l.18-.007c.852.867 1.83 1.633 2.45 2.783.192-.084.323-.145.434-.193.106-.791-.137-1.376-.507-2.004m.322-.474c-.061.014-.122.038-.193.063.068.089.135.168.35.464a39.208 39.208 0 0 1-.157-.527m-1.65-1.321c.018.07.064.136.088.207l.045-.061a4.602 4.602 0 0 0-.133-.146m-.582-6.353c.63.56 1.24 1.16 1.9 1.679.55.44 1.05.98 1.78 1.11-.65-.92-1.38-1.74-2.23-2.46-.47-.4-.89-.85-1.32-1.3-.33-.34-.32-.35-.96-.58-.02.12-.08.24-.05.33.14.52.49.88.88 1.22m-.07 2.14c.01-.23-.12-.33-.43-.36.09.3.2.43.43.36m4.16 2.88c-.2-.7-.21-.69-.75-1.17-.07.02-.14.02-.2.04-.03.01-.04.06-.09.14.28.27.58.55 1.04.99m-.76-5.52c.22.15.36.25.5.33.21-.12.13-.26.05-.37-.12-.16-.28-.25-.55.04m1.15-3.5c.43.77 1.05 1.29 1.84 1.57-.26-.41-.52-.82-.8-1.23-.26-.39-.63-.67-1-.8-.04-.08-.09-.14-.13-.21-.43-.08-.86-.17-1.29-.26.35.45.86.73 1.38.93m.65-2.57c-.08-.07-.2-.09-.35-.15-.03.09-.06.17-.09.26.27.08.54.14.81.2-.12-.11-.24-.21-.37-.31m-.81-.7c-.11-.34-.27-.66-.59-.84-.44-.26-.71-.66-.99-1.09-.24-.38-.53-.76-1.03-1 0 .17-.03.3.02.37.15.27.33.52.51.77.38.49.77.96 1.31 1.65.16.12.43.32.71.52.2-.1.1-.24.06-.38m-3.95 3.02c.09-.15.17-.27.27-.44-.26-.1-.51-.15-.71-.28-.2-.13-.37-.28-.63-.17-.28.24-.15.57-.17.86.29.52.66.89 1.14 1.16.7.4 1.32.93 1.85 1.56.11.13.25.33.47.12-.66-1.01-1.71-1.69-2.22-2.81m1.49.08c-.01.27.01.51.38.57l.01-.48-.39-.09m-3.89 5.49c-.31-.22-.65-.47-1-.71-.61-.42-1.11-.95-1.61-1.5-.41-.46-.77-.99-1.37-1.22-.19.13-.08.28-.03.42.17.55.62.89.96 1.31.2.24.2.23.33.69 1.2.69 1.98 1.95 3.18 2.59.1-.08.15-.12.24-.2-.22-.44-.45-.89-.7-1.38m-4.88-.44-.47-.01c.14.44.5.65.74.79.68.87 1.27 1.63 1.98 2.53.72.4 1.37 1.17 2.05 1.9l.066.068a.177.177 0 0 1 .012-.017c.455.096.78.35 1.055.67a.454.454 0 0 0 .097-.29c.01-.24.01-.48.02-.73-.34-.43-.67-.861-1.04-1.34-.76-.51-1.65-.97-2.17-1.97-.21-.07-.46-.15-.71-.23-.52-.44-1.05-.88-1.63-1.37m-.91-.73c-.01.32.12.56.41.68.01-.32-.11-.56-.41-.68m.26 2.779c.08-.3.02-.39-.27-.28.09.1.17.18.27.28m.69.44c-.09-.1-.16-.17-.25-.26-.09.28-.02.36.25.26m-3.93.152c-.16.54-.1 1.04.2 1.48.044.062.14.162.263.28a2.1 2.1 0 0 1 .229.215c.33.302.78.689 1.254 1.094.06-.46-.01-.572-.877-1.862.02-.091.049-.193.078-.291-.38-.302-.755-.605-1.146-.916m-3.391-3.781c.02.14.03.29.08.42.07.17.17.33.28.519.17-.04.31-.07.48-.1-.09-.55-.5-.66-.84-.84m-1.82 3.1c.09.13.16.34.29.41.074.04.177.12.295.218-.115-.19-.223-.383-.35-.566.2.013.402.02.603.033-.22-.144-.451-.291-.718-.464-.04.12-.08.22-.12.37m-4.033-1.345c.028.153 1.154 1.38 2.38 2.667a55.788 55.788 0 0 0-.171-.732c-.012-.054-.032-.105-.05-.156a33.536 33.536 0 0 0-2.16-1.78m1.374 2.685c-.07-.21-.19-.36-.41-.37-.01.34.2.36.41.37m1.48 3.23c-.06-.05-.18-.01-.41-.01.22.4.457.654.586.983-.015-.295-.038-.59-.068-.886-.036-.027-.072-.058-.108-.086m-3.62-3.32c-.05.339.12.45.32.54.01-.24-.04-.451-.32-.54m-1.26-.56c-.09.09-.13.14-.21.22.03.09.08.17.13.24l-.64-.38c.04-.35-.12-.46-.47-.5-.05.05-.15.13-.22.19.2.4.39.48.62.37l5.47 5.36-4.04-4.61c-.16-.45-.16-.45-.64-.89m10.207 6.197c-.126-.612-.143-.657-.901-1.174a1.252 1.252 0 0 0-.12.25c.224.378.683.472 1.02.924m1.784 1.377c.139-.257.117-.441-.207-.494-.22.303-.047.417.207.494m3.412-2.061c.15-.072.312-.144.523-.25-.706-.69-1.367-1.341-2.072-2.031a.588.588 0 0 0-.186.212l.324.277c.215.3.43.736.59 1.124.246.243.51.473.82.668m3.45.209c.087-.11.162-.227.259-.347-.185-.4-.472-.66-.783-.882-.196.212.354.796.229 1.034.094.07.18.144.296.195m.795 1.139c.169-.28.28-.472.394-.655-.087-.232-.232-.4-.464-.467zm-1.24-3.845c-.095-.073-.184-.155-.277-.23.086.086.18.159.278.23m-1.926-1.843c-.094-.098-.186-.195-.281-.292-.1-.1-.23-.2-.39.03.078.078.165.17.257.273zm.569 2.433c0 .055.026.092.08.119-.023-.038-.054-.08-.08-.12m5.176 3.302c.214.276.534.432.905.399-.13-.24-.23-.513-.386-.72-.663-.82-1.357-1.615-2.118-2.315-.342-.13-.686-.255-.917-.2-.05-.037-.098-.081-.148-.12.775 1.097 1.853 1.894 2.664 2.956m7.063 3.385c.23-.118.462-.225.764-.368-.087-.222-.11-.427-.212-.576a4.725 4.725 0 0 0-.615-.737c-.673-.671-1.424-1.254-2.058-1.98-.478-.528-1.092-.913-1.658-1.354-.11-.086-.265-.107-.403-.16 1.215 1.898 2.505 3.677 4.182 5.175m-2.12-9.982c-.13-.17-.22-.3-.36-.48-.04.47-.04.47.36.48m1.95-1.01c.2.07.43.15.74.25-.03-.54-.41-.71-.65-.97-.12-.14-.3-.22-.55-.06.06.28.29.49.46.78m.93-2.41c.1.03.23.07.35.11l-.06-.63c-.31.14-.31.14-.29.52m.65 1.3c.13-.24.2-.36.3-.541-.08-.19-.16-.39-.24-.58-.13-.02-.23-.03-.33-.04.08.35.16.7.27 1.16m.48-2.28c-.25-.05-.33.05-.44.54.14.03.28.05.38.07.25-.21.27-.41.06-.61m-8.12-10.45c-.1.25.03.36.22.45.16-.28.04-.4-.22-.45m-2.52-2.85c.04.18.12.33.34.36.09-.35-.14-.34-.34-.36m-.67 1.8c.17.14.31.25.4.33.28-.02.45-.1.53-.33-.29-.16-.57-.15-.93 0m-8.73-8.02c-.11.06-.24.12-.33.17-.08.31.74 1.27 1.76 2.11.02-.12.08-.25.05-.34-.33-.76-.8-1.41-1.48-1.94m-2.57 2.33c.08.21.2.38.45.39-.08-.27-.1-.28-.45-.39m-1.07-1.35c.17.18.31.34.51.56-.07-.61-.06-.61-.51-.56m-.84-.8c-.08.3.02.42.21.48.16-.22 0-.33-.21-.48m-2.87-1.43c-.19-.33-.39-.66-.82-.66-.04.56.42.75.68 1.08.22-.12.21-.29.14-.42m-.21 3.4c.05-.14.08-.21.12-.31-.22-.17-.46-.35-.69-.53-.05.06-.09.1-.09.12.05.36.31.52.66.72m-1.49-5.04c.13.31.32.55.62.68-.08-.53-.12-.57-.62-.68m-.76-1.2c-.08.18-.12.28-.17.42.22.35.4.74.89.75.03-.57-.41-.78-.72-1.17m-.83 1.04c-.24.25-.36.38-.48.5 0 .55.24.94.56 1.29.24.26.44.62.8.68.08-.08.13-.11.13-.14l-.25-1.19c-.21-.31-.44-.66-.76-1.14m-1.48 3.92c0 .25.05.47.34.59.09-.37-.11-.49-.34-.59m-.72-3.06c-.29-.37-.58-.72-.85-1.05a7.96 7.96 0 0 1-.37-.03c0 .11.01.22.02.38.41.25.62.82 1.18.97.01-.14.05-.23.02-.27m-1.26-1.49c-.43-.46-.89-.96-1.38-1.5-.17-.02-.37-.04-.58-.06.15.26.28.53.43.78.18.31.38.61.73.68.34.06.42.56.81.49 0-.11-.01-.22-.01-.39m-3.07 2.81c-.07-.23-.18-.44-.27-.64.09-.11.16-.2.27-.34-.1-.14-.21-.28-.36-.48-.24.2-.48.36-.65.68.44.44.57 1.16 1.14 1.55.23-.33-.06-.53-.13-.77m-.47-4.08c.18.22.32.38.48.57.05-.5.05-.5-.48-.57m-3.19.68-.02.47c.14.03.27.06.39.09-.01-.25-.01-.5-.37-.56m-.79-2.7c-.19.37-.07.58.2.75.08-.05.16-.12.23-.17.02-.31-.17-.42-.43-.58m-.14 5.13.48-.45c-.17-.71-.18-.71-.66-.88-.18.46-.27.89.18 1.33m-.48 6.3c.06.56.18 1.12.5 1.56.37.52.63 1.16 1.23 1.5.26.15.43.44.65.65.07.07.2.07.31.11.21-.4-.14-.69-.07-.99-.1-.14-.16-.24-.24-.33-.46-.53-.84-1.09-1.08-1.78-.19-.53-.59-.88-1.17-1.31-.07.3-.15.45-.13.59m1.24 3.82c.01-.42-.21-.67-.56-.86-.05.66-.04.67.56.86m1.31 1.7c-.05-.56-.41-.89-.83-1.16.04.57.42.88.83 1.16m-.99-7.36c-.42-.36-.77-.65-1.12-.94-.22.15-.15.34-.08.51.05.11.13.2.2.29.34.46.68.94 1.05 1.38.18.22.41.39.63.58-.12-.68-.55-1.23-.68-1.82m-2.49 3c.07.12.14.24.23.39.08-.27.07-.29-.23-.39m-7.64-4.75c.11.27.26.48.56.6-.05-.44-.06-.46-.56-.6m-.92-1.91c-.19-.34-.31-.75-.7-.92-.23 0-.34.18-.37.37-.07.39-.11.79.09 1.16.31.4.78.47 1.12.63.28.23.51.41.73.6-.18-.67-.54-1.25-.87-1.84m.31 3.11c-.12-.45-.38-.8-.83-1.04.12.48.12.48.83 1.04m-6.82-4.97c.11.62.29.97.79 1.02-.18-.52-.18-.52-.79-1.02m20.92 9.83c-.01-.25-.03-.48-.35-.59-.06.35.14.48.35.59m.58.88c.21.06.29-.04.31-.22.01-.11.01-.11-.28-.29-.17.17-.16.34-.03.51m.81.95c.19-.32.19-.32-.16-.68-.2.3-.1.51.16.68m18.42 10.53c-.06.03-.15.07-.23.12.07.37.28.53.6.53.03-.29-.09-.5-.37-.65m84.139 18.02c.27.03.38.03.5.05-.04-.31-.14-.39-.5-.05m9.51 8.31c.28.16.55.32.83.48-.05-.58-.4-.91-.85-1.17.01.21.01.43.02.69m7.33-6.26c-.51.1-.8.57-1.07 1.02-.33-.05-.62-.08-.9-.12.26.47.52.93.82 1.48l-.01.54c-.16.08-.32.17-.45.24-.34-.05-.63-.1-.95-.16-.25.38-.5.71-.91.89-.08.03-.12.18-.2.31.19.5.67.88.61 1.46-.07.53-.52.21-.76.43-.08.17-.17.36-.31.65-.03-.56-.04-.99-.05-1.27-.52-1.41-1.62-2.03-2.58-2.87-.26-.8-1.04-1.16-1.54-1.8-.05-.06-.18-.06-.29-.07.29.63.52 1.3 1.04 1.79.14.13.19.34.29.51.17.31.31.65.53.92.4.48.71 1.02.96 1.6.06.15.13.3.24.41.25.26.35.58.46.93.13.4.29.83.74 1 .1-.26.19-.5.27-.74.31.11.27.34.24.51-.08.47-.2.92-.3 1.38-.56.03-.93-.26-1.22-.71-.18-.3-.34-.61-.51-.92-.15-.27-.32-.52-.62-.63l-.03.94c.3.51.54.91.8 1.36-.15.16-.31.32-.51.53-.46-.47-.87-.94-1.33-1.35-.49-.43-.69-1.15-1.33-1.42-.22.22-.11.43.02.63.2.33.45.64.62.99.2.39.37.77.71 1.06.32.29.51.7.46 1.17-.02.11-.09.21-.14.32-.13 0-.24.01-.28.01-.59-.57-1.11-1.14-1.56-1.76-.02-.03-.12.02-.2.03.08.38.16.77.21 1.04.3.54.55.97.82 1.46-.19.13-.35.23-.49.32-.25-.07-.47-.12-.69-.19-.07-.02-.12-.08-.25-.16-.09-.6-.47-1.09-.93-1.52-.05-.05-.11-.11-.14-.18-.04-.07-.05-.15-.08-.27.23-.21.48-.43.71-.65-.12-.34-.19-.67-.57-.74-.22.12-.45.25-.64.36-.12-.05-.2-.07-.26-.11-.54-.33-.82-.93-1.24-1.38-.69-.74-1.36-1.49-1.98-2.17-.17-.56-.3-1.02-.44-1.49-.35-.29-.71-.58-1.06-.87-.21-.99-.84-1.69-1.37-2.41-.23-.12-.42-.23-.62-.34-.08-.34-.14-.65-.21-.95-.52-.35-1.02-.68-1.57-1.04-.07-.46-.42-.9-.28-1.45.41-.57.41-.57 1.29-.77.63.32 1.06.89 1.56 1.37.1.11.21.25.39.09-.37-.57-.75-1.14-1.1-1.66.28-1.07.28-1.07.8-1.53.49.18 1.01.38 1.61.6-.12-1.33-.99-2.2-1.35-3.3-.17-.13-.33-.24-.48-.36-.42-.3-.89-.52-1.16-1.03-.09-.17-.37-.23-.61-.37-.01.02-.02.03-.03.05a.829.829 0 0 0-.28-.08.47.47 0 0 0-.24.05c.01-.29 0-.59-.15-.87-.13-.1-.29-.21-.47-.33-.6.2-1.2.39-1.81.59-.82-.8-1.61-1.67-2.81-1.86-.24-.25-.07-.74-.5-.92-.21.1-.44.2-.62.29-.32-.17-.58-.32-.8-.44-.33.24-.6.44-.84.63-.17-.09-.29-.12-.37-.19-.56-.54-1.11-1.09-1.66-1.63-.24-.08-.49-.16-.71-.22-.03-.19-.05-.31-.08-.42-.02-.12-.06-.23-.08-.32-.95-1.17-2.09-2.18-2.97-2.64 0 .07-.01.16.02.21.72 1.22 1.44 2.44 2.18 3.64.14.23.34.43.52.63.04.04.13.04.2.06.11-.09.22-.18.38-.29.25.41.08.83.11 1.24.86 1.59 1.71 3.18 2.63 4.9 0 .23-.01.58-.02.94-.01.07-.06.14-.08.18-.17.25-.37.03-.57.1-.23.12-.43.44-.85.24-.35-.25-.52-.8-.99-1.02-.19-.42-.46-.79-.75-1.13-.11-.28-.23-.57-.36-.89.04-.28.09-.63.13-.96-.12-.22-.21-.43-.35-.62-.15-.22-.35-.42-.48-.58-.28-.07-.5-.14-.68-.19-1.05-1.93-2.5-3.64-3.15-3.69-.2.1-.4.2-.57.29-.11-.08-.2-.11-.23-.17-.35-.74-.89-1.37-1.17-2.17a2.77 2.77 0 0 0-1.2-1.49v.5c.31.52.58 1 .83 1.41-.01.27.08.48-.15.58-.43-.06-.63-.41-.87-.71-.03-.04-.13-.01-.22-.01-.08.25-.16.51-.24.77l-.41-.01c-.2-.35-.42-.72-.61-1.04-.23-.1-.4-.17-.49-.21-.35-.66-.66-1.24-.97-1.83-.33-.12-.49-.56-.87-.66-.05.13-.1.21-.09.27.08.63.57 1.02.87 1.55-.04.21-.08.43-.12.68-.2-.02-.35-.03-.41-.04-.73-.87-1.4-1.67-2.07-2.48-.37-1.13-.79-2.21-1.74-2.99-.19-.15-.46-.36-.44-.76.01-.25-.26-.44-.53-.53-.08.91.28 1.59 1 2.07.32 1.04.53 1.41 1.25 2.18.01.14-.01.28.04.37.46.68.73 1.47 1.1 2.19.2.39.45.74.67 1.11l-.02.87c-.1.14-.192.242-.298.286.184.338.396.754.609 1.245.27.64.5 1.31.93 1.89.34.45.69.94.8 1.56.1.55.3 1.06.61 1.53.21.33-1.14.94-1.23.84-.56-.62-2.151-1.67-2.62-2.34-.301-.45-.571-.93-.73-1.48-.111-.37-.27-.76-.52-1.05-.31-.37-.49-.79-.7-1.22-.161-.35-.411-.66-.601-1-.34-.61-.87-1.11-.98-1.8-.88-.67-.3-1.19-.86-2.08-.57-.89-1.3-1.66-1.71-2.66-.14-.33-.42-.52-.86-.54.04.2.03.37.1.49.12.24.3.45.44.69.03.05 0 .14 0 .27-.13.03-.27.05-.41.08-.13-.13-.25-.23-.36-.34-.58-.56-1.13-1.14-1.76-1.65-.6-.47-1.19-.99-1.55-1.71-.02-.04-.12-.03-.18-.05-.13.21-.05.39.07.56.41.57.85 1.12 1.23 1.71.5.79.95 1.61 1.46 2.48-.24.13-.42.23-.6.33-.63-.51-.94-1.21-1.36-1.81 0-.42-.35-.59-.55-.87-.05-.06-.17-.07-.29-.11.2 1.1 1.06 1.71 1.4 2.63-.01.23.09.5-.26.61-.14-.16-.28-.33-.43-.51-.26.01-.51.02-.9.04-.11-.13-.25-.3-.43-.52.36-.71-.08-1.33 0-1.98-.17-.19-.32-.35-.5-.54-.15.51.27.87.13 1.3-.83-.03-1.3-.76-2.07-1.1.02.3.01.53.04.76.03.27.12.54.14.82.01.19-.01.4-.31.45-.39-.21-.63-.64-.97-.94-.34-.31-.7-.59-1.09-.92-.11.61-.21 1.15-.32 1.77.16.27.36.6.56.94.14.23.31.46.4.72.06.2.02.45.03.82-.31-.26-.51-.43-.74-.62l-.36-.01c-.29-.48-.56-.91-.72-1.19-.44-.42-.77-.69-1.04-1.01-.46-.53-.88-1.09-1.33-1.63-.08-.1-.22-.23-.36.04.53.74 1.08 1.5 1.63 2.26.5.7 1.01 1.39 1.2 2.25.21.04.38.08.55.11l-.02.84c-.27.02-.49.04-.65.05-.65-.74-1.25-1.45-1.85-2.14-.02-.21-.04-.39-.07-.68-.43.14-.68-.36-1.09-.14-.02.05-.04.1-.03.12.37.5.75.99 1.2 1.58.2.41.47.94.73 1.47.07.14.17.29.17.43.03.54.29.99.49 1.46.1.26.23.51.15.8-.03.07-.08.13-.15.26-.15-.02-.33-.05-.47-.07-.44-.58-.64-1.22-.82-1.83-1.15-1.31-1.42-1.53-1.99-1.62l.078.205c.246.366.47.773.49 1.24.542 1.287 1.167 2.54 1.623 3.215.07.5.13.96.19 1.45-.078.06-.156.115-.24.17-.008.042-.017.085-.021.14-.24.2-.5.42-.75.63-.04.3-.08.57-.14.89-.27.11-.54.21-.75.3-.42-.21-.42-.76-.86-.8-.091.32.09.56.23.77.389.53.58 1.11.51 1.73.3.51.58.98.84 1.42-.2.48-.48.56-.83.38-.24-.33-.47-.64-.71-.94-.02-.03-.12.01-.22.02l-.01.5c.3.59.559 1.12.83 1.68-.481.8-.07 1.55.079 2.3-.09.36-.16.7-.27 1.04-.03.1-.15.17-.25.28-.24-.03-.48-.07-.67-.09-.16.12-.08.34-.28.34-.04-.32-.08-.63-.12-.87-.31-.45-.73-.53-1.12-.71.09-.13.17-.25.28-.43-.12-.25-.25-.53-.36-.76-.25-.11-.38-.37-.64-.23-.04.48.49.83.22 1.42l-.24.03c.18.38.4.74.6 1.11.23.41.44.83.58 1.25-.1.29-.23.45-.47.38-.52-.3-.7-.88-.92-1.4-.23.08-.45-.12-.6.16.02.1 0 .24.06.31.034.04.059.085.09.126-.094-.066-.183-.138-.277-.205.038.092.084.177.108.283.003.04.045.059.124.157.194.133.454.313.692.474.406.543.725 1.174 1.213 1.537.393.29.592.707.842 1.08-.002.008-.007.014-.01.02a8.942 8.942 0 0 1-.244.632c-.244.253-.452.738-.658.995l-.01.01c-.115.076-.261.236-.356.326-.04.022-.08.046-.121.073-.015.006-.03.015-.046.02a.766.766 0 0 0-.131.054c-.325.114-.636.25-.916.42-.67-.511-1.292-.994-1.89-1.458-.39-.1-.767-.19-1.198-.297-.052.499-.1.915-.17 1.457-1.082-.946-1.61-2.266-2.683-3.057-.353-.01-.685.476-1.236-.058-.271-.365-.667-.91-1.13-1.366-.285.08-.508.145-.722.2-.47-.57-.353-1.353-.694-1.993-1.122-.24-1.664-1.302-2.521-1.93a87.974 87.974 0 0 1-.866-.288c.029.144.04.318.119.427.599.8 1.148 1.654 1.865 2.354.22.223.383.513.555.78.035.062.01.156.009.3-.09.058-.21.138-.348.239l-.547-.482-.021-.671c-.681-.123-.775-.974-1.371-1.237-.218.323.25.707-.2.942-.273.11-.472-.094-.69-.278-.175-.144-.315-.393-.596-.252-.084.14-.168.29-.271.472-.273-.738-.533-1.424-.794-2.131-.368-.081-.694-.164-1.061-.244-.188-.195-.368-.422-.586-.594-.838-.661-1.657-1.344-2.302-2.234-.204-.287-.486-.507-.89-.482-.195.508.019.95.316 1.24.672.652 1.165 1.427 1.689 2.19.114.169.277.293.4.44.1.128.182.268.263.397-.043.148-.088.254-.156.485-1.005-.681-1.403-1.917-2.343-2.551-.1.078-.187.156-.335.269-.24-.512-.478-1.025-.703-1.476-.371-.483-.71-.927-1.057-1.36-.068-.088-.185-.133-.281-.19-.041-.151-.052-.337-.151-.424-.42-.428-.88-.834-1.32-1.25-.167-.207-.346-.413-.503-.61-.265.058-.48.113-.684.156-.012.31.146.518.345.712.352.34.584.739.667 1.24.992 1.137 1.983 2.274 3.04 3.469.193.092.47.219.789.365-.042.322.217.648-.151.898-.563-.07-.891-.514-1.27-.78l-.94.038c-.41-.43-.751-.77-1.074-1.131-.29-.324-.505-.806-.858-.98-.47-.22-.624-.716-1.037-1.032-.052.149-.098.255-.142.37.195.309.41.606.575.926.105.2.142.446.209.7-.393.18-.595.585-1.03.59-.222-.574-.421-1.12-.964-1.52-.18-.061-.444-.148-.782-.272-.281-.354-.616-.747-.942-1.16-.237-.316-.464-.643-.855-.763.029.462.318.786.548 1.154.436.676.83 1.374 1.27 2.122a7.782 7.782 0 0 1-.433.357c-.872-.37-1.188-1.125-1.458-1.81-.632-.51-1.26-.118-1.903-.306-.008.042-.006.073-.014.104a1.797 1.797 0 0 0-.532-.06c-.051.003-.092.017-.133.029-.117-.027-.224-.054-.34-.083-.607-.342-1.217-.641-1.852-.855l-.216-.183-.453.009c-.017-.004-.033-.01-.05-.012-.158-.361-.086-.862-.686-.967-.176.176-.39.396-.535.55-.018.085-.01.155-.013.233-.106-.007-.205-.03-.313-.031a19.168 19.168 0 0 0-1.714.057l-.258-.243-.836-.464-.627-.02c-.11.07-.196.126-.225.143-.25.09-.41-.02-.55.03-.29-.15-.59-.29-.91-.39 0-.44.29-.74.26-1.12-.27-.38-.72-.13-1.21-.51-.27-.3-.69-.79-1.09-1.24-.56-.41-1.09-.79-1.67-1.21-.12-.02-.28-.04-.37-.06-.43-.31-.8-.56-1.16-.84-.16-.12-.3-.27-.46-.42.05-.29.1-.54.15-.79-.14-.37-.62-.53-.52-1.1.41-.54 1.14-.74 1.55-1.56.01-.02.02-.05.02-.07.2-.18.38-.4.51-.65.05.07.11.13.2.17.05 0 .1-.01.14-.04l4.84 4.867c-.022-.142-.046-.283-.07-.424l-1.48-1.693-3.19-2.8c.34-.2.46-.8 1-.92.27.01.68-.07 1.09.09.19.25.38.51.49.66.37.35.7.43 1.04.35.1-.02-1.58-1.71-1.47-1.78v-.34c.02.01.04.03.06.04.11.05.21.04.3.01.05.23 1.86 2.07 1.91 2.27.28.23.52.44.77.62.11.08.25.07.4.11.11-.18.19-.33.3-.52-.07-.13-.15-.25-.2-.38-.15-.42-1.98-1.97-1.61-2.41.45.16 2.66 1.37 3.04 1.63.15.09.3.16.45.21-.16-.28-.31-.56-.5-.81-.47-.63-.41-2.4-.16-2.17.48.45 1.04.81 1.48 1.3.46.51.89 1.05 1.41 1.52.63.57 1.15 1.26 1.75 1.87.397.41.819.81 1.252 1.217.215-.042.426-.004.659.16.059.147.134.325.217.52.218.113.414.32.622.513.02.019.193.178.44.402.024 0 .039.013.063.01.172-.15.34-.288.512-.435a8.833 8.833 0 0 0-.535-.497 8.34 8.34 0 0 1-1.9-2.19c-.42-.7-.83-1.42-1.3-2.09-.42-.59-2.07-1.91-2.72-2.29-.16-.57.94-.46.77-1.06.2-.21.37-.41.56-.61.19.31.35.57.55.89l.94-.14c.57.2 1.1.39 1.69.6.18.54.59.96 1.08 1.37.52.44 1.18.69 1.57 1.3.03.04.14.03.21.04.24-.66.24-.66-.36-1.24l-.28-.01-1.34-1.76.04-1.21c.13-.1.22-.17.33-.26.96.31 1.5 1.32 2.42 1.58.61.87 2 2.07 2.86 2.5-.12-.52-.6-.77-.76-1.28-.14-.45-.62-.78-.52-1.39.09-.03.2-.1.3-.09.79.1 1.1.92 1.67 1.32.25-.16.22-.37.19-.55-.16-.75-.47-1.42-.97-1.99-.22-.27-.45-.53-.7-.83.13-.21.24-.4.31-.51.66-.21.75.59 1.25.59.39-.33.08-.86.32-1.22.37-.05.73-.09 1.05-.12.48.43.9.81 1.32 1.19.02-.58-.61-.89-.57-1.47.29-.34.29-.34.79-.33.04.07.09.12.13.18.01-.01.01-.01.01-.02h.96c.15.17.29.32.39.43-.02.3-.04.51-.06.79.24.03.43.05.66.08.09-.11.18-.21.26-.32-.87-1.34-2-2.43-2.79-3.76.02-.17.04-.31.06-.47-.25.04-.43.07-.54.08-.58-.15-.89-.57-1.29-.87-.05-.04-.14-.01-.21-.01-.11.2-.22.39-.32.57l-.43-.01a15.18 15.18 0 0 1-1.73-2.01c-.04-.06-.13-.07-.2-.11-.22.13-.44.27-.59.36l-1.91-1.09c-.19-.32-.32-.69-.56-.9-.57-.5-1.19-.93-1.8-1.39-.01.29.16.49.32.69.27.34.54.67.76 1.04.24.4.46.81.78 1.16.29.32.5.7.47 1.17-.01.07-.07.14-.13.23l-.35-.01c-.74-.92-1.44-1.8-2.25-2.81-.13-.09-.39-.27-.78-.53l.15 1.1c-.14.09-.29.19-.42.27-.64-.57-.64-.57-.94-1.23-.03-.07-.1-.11-.17-.18-.21-.03-.43-.06-.68-.1-.18-.23-.36-.48-.56-.71-.09-.1-.21-.24-.4-.09.03.18.07.37.07.55 0 .2-.03.41-.33.46-.12-.09-.27-.21-.41-.33-.16-.11-.31-.23-.43-.32-.73-1.21-1.46-1.9-2.62-2.49.04.18.05.38.15.52.27.4.38.87.45 1.33.04.22-.06.45-.09.62-.31.17-.49.04-.69-.1-.17-.12-.39-.16-.6-.25-.28-.55-.56-1.11-.79-1.57-.02-.31.19-.5-.07-.71-.47.06-.91-.08-1.27-.47a3.95 3.95 0 0 0-.44-.36c-.03-.02-.13.05-.22.09.21.31.46.59.62.92.2.39.43.74.7 1.08.35.42.63.89.94 1.34.03.05-.01.15-.03.29l-.65-.02c-.43-.5-.8-.94-1.21-1.42-.07-.8-.87-.97-1.33-1.46-.57-.61-.92-.75-1.34-.85.01.57.53 1.01.28 1.68-.1.1-.26.27-.42.43-.02.02-.07 0-.15 0-.13-.35-.27-.71-.39-1.02-.64-1.01-1.55-1.69-2.21-2.55-.06-.28-.1-.51-.14-.76-.28.21-.28.21-.37.56.21.34.43.69.69 1.1-.16.15-.28.27-.38.38-.77-.23-1.17-.82-1.6-1.32.01-.13.02-.21.04-.35-.15-.2-.32-.44-.58-.81-.48 1.11-.27 2.04.14 2.94-.22.27-.4.49-.6.74-.06-.29-.11-.52-.14-.64-.65-.8-1.24-1.52-1.94-2.38-.31-.18-.75-.47-1.07-.94-.17-.25-.43-.43-.66-.62-.05-.04-.14-.02-.26-.03-.07.1-.15.22-.24.36.13.23.22.45.36.63.17.21.36.42.57.57.18.12.4.15.65.24.52.79 1.05 1.61 1.58 2.43.21.33.39.68.61 1.01.17.25.39.47.55.67.27 1.01.76 1.86 1.29 2.66.26.96.52 1.93.76 2.89a.538.538 0 0 0-.41-.25c-.17.32.07.51.18.75.12.29.18.6.29.99.04.05.13.18.22.31.1.16.2.32.21.35.13.68-.5.68-.58 1.11.38.52 1 .84 1.28 1.57-.1.22-.24.49-.36.74l-.28-.01c-.69-.78-.69-.78-1.39-1.08-.49-.52-.97-1.03-1.44-1.52-.15-.28-.26-.58-.45-.82-.34-.42-.73-.8-1.1-1.2-.28-.31-.6-.57-.99-.72.06.2.1.4.2.57.11.19.21.37.2.59l-.44-.01c-.44-.23-.5-.7-.89-.86-.34-.14-.63-.4-.92-.6-.37.2-.69.37-1.05.56-.04-.36-.08-.67-.1-.92-.16-.26-.26-.48-.4-.67-.33-.47-.64-.97-1.04-1.38-.45-.46-.91-.9-1.17-1.52-.09.06-.19.11-.21.12-.01.63.42 1.11.06 1.63-.47-.05-.74-.37-.97-.75-.26-.43-.45-.92-.83-1.26-.21.05-.39.08-.65.14-.14-.64-.57-1.05-1.01-1.5-.46-.46-.96-.85-1.42-1.29-.17.19-.13.35-.03.48.36.46.79.87 1.08 1.37.4.7.92 1.26 1.54 1.66.13.72.12.72-.42.93-.56-.46-1.02-1.03-1.45-1.64-.25-.34-.54-.65-.83-.97-.13-.14-.32-.23-.42-.39-.64-.92-1.57-1.45-2.44-2.03-.12-.3-.22-.61-.37-.88-.13-.24-.34-.43-.5-.65-.67-.85-1.51-1.53-2.25-2.39-.11.24-.21.45-.28.58.58.69 1.05 1.37 1.62 1.92.59.58.86 1.4 1.45 1.93.18.01.33.03.52.05.16.71.53 1.3.96 1.87.25.34.5.7.4 1.24-.14.03-.27.06-.39.09-.2-.25-.36-.46-.53-.68-.17.02-.32.03-.45.05-.21-.42-.35-.89-.63-1.25-.59-.72-1.19-1.47-1.9-2.06-.66-.55-1.24-1.16-1.8-1.81-.31-.36-.67-.62-1.07-.75-.65-.99-1.26-1.93-1.89-2.86-.14-.21-.13-.42-.12-.65.33.24.68.46 1 .73.3.25.47.68.95.91-.1-.52-.17-.94-.23-1.26-.26-.37-.43-.69-.67-.94-.24-.24-.55-.41-.82-.6-.29-.43-.57-.85-.87-1.28.07-.16.12-.3.18-.43l.61.02c.52.52 1.04 1.03 1.63 1.62-.05-.3-.08-.51-.12-.78.16-.15.34-.33.58-.54.17.4.3.73.42 1.04.28.15.55.28.69.36.41.54.67 1.05 1.07 1.38.6.49 1.09 1.07 1.56 1.68.09-.06.18-.13.33-.23.07.07.14.15.22.24.09.29-.38.56.02.81.1-.09.2-.2.3-.3.14-.14.27-.27.42-.4-.03-.39-.05-.74-.06-1.02-.55-.77-1.25-1.29-1.66-2.02.04-.34.2-.46.52-.48.57.72 1.52 1.11 1.92 2.08.06.14.19.24.3.35.83.87 1.64 1.76 2.2 2.87.12.23.3.46.66.48.04-.21.08-.41.13-.65.2.02.39.04.57.05.82.84 1.45 1.83 2.3 2.61.26.23.47.51.69.77.32.39.59.85.97 1.15.46.37.8.81 1.1 1.27.15.02.25.03.35.04-.25-.47-.51-.94-.8-1.47-.03-.26-.09-.61.33-.82.25.4.46.78.71 1.13.07.1.23.12.39.2.21-.51.16-.92-.03-1.33-.2-.43-.41-.85-.58-1.29-.07-.17-.06-.37-.08-.58.32-.1.59-.19.89-.28-.06-.52-.17-.94-.53-1.21-.26-.2-.39-.47-.53-.75-.17-.31-.3-.66-.52-.92-.5-.56-.69-1.3-1.07-1.94-.04-.07-.02-.2-.03-.29.5-.18.67.41 1.11.39.06-.02.16-.06.24-.1.1-.33-.3-.61.04-.97.41.49.37 1.19.92 1.85 0 .01.19.17.45.4l.04-1.59c-.29-1.17-1.13-1.66-1.5-2.47.38-.34.38-.34 1.26-.54-.26-.45-.51-.89-.78-1.36.06-.2.12-.42.19-.67.38.03.72.05 1.03.08.23.35.23.85.72.91.24-.05.49-.1.71-.15.86.86 1.54 1.82 2.41 2.54.12-.08.21-.11.23-.18.06-.13.1-.28.14-.42.66-.06 1.21.14 1.53.81.04.08.16.12.25.17 0-.26-.01-.52-.01-.78-.2-.12-.37-.21-.57-.33-.07-.18-.16-.39-.24-.6.1-.21.19-.38.28-.59.33.22.61.42.85.58.58.94.58.94 1.35 1.48 1.02 1.69 2.4 2.8 2.82 2.57l.01-.74c-.37-1.01-1.38-1.19-1.7-1.96 0-.41.12-.62.44-.67.56.32 1.12.64 1.67.96.29.85.29.85.85 1.16l.03-.97c.26-.21.47-.21.68-.08.6.83 2.65 3.1 3.37 3.72.23-.28.09-.53-.09-.72-.76-.78-1.35-1.7-2.12-2.44-.07-.58-.07-.58.26-.99.19.1.39.19.61.31.42.85 1.03 1.54 1.75 2 .55.81 1.02 1.57 1.71 2.16.53.45 1 .97 1.2 1.4.79.79 1.4 1.41 2.06 2.08.11-.6-.31-.84-.5-1.18-.09-.27.07-.57-.15-.79-.08-.01-.16-.02-.26-.02-1.06-1.2-2.11-2.43-2.9-3.75-.01-.38.07-.59.35-.67 1.33 1.06 2.05 2.73 3.36 3.83.24-.15.28-.32.24-.46-.58-.65-1.12-1.26-1.64-1.84-.07-.3-.12-.56-.19-.89.24-.07.44-.13.59-.17.53.3.74.88 1.23 1.07.1-.07.16-.12.25-.18.13.41.25.81.39 1.21.04.1.14.19.19.26.38.06.71.12.99.17.59.59 1.11 1.16 1.71 1.66.59.48 1.08 1.1 1.59 1.68.65.76 1.47 1.35 2.01 2.23.03.06.13.07.25.13.16-.58.11-1.11-.32-1.52-.46-.45-.84-1.01-1.42-1.22-.23-.45-.52-.8-.3-1.34.09-.04.21-.11.35-.18.77.47 1.11 1.33 1.76 1.85-.03.2-.06.35-.1.64.51.11.64.64.9 1.07.04.05.13.08.22.14.19-.06.41-.12.61-.18.6.18.94.68 1.34 1.07.23.09.44.17.65.25.21.4.4.78.51.98.47.46.81.78 1.14 1.11.22.21.43.44.66.65.63.57 1.28 1.11 1.88 1.71.33.34.68.61 1.06.74.18.76.5 1.37 1.06 1.73.73.48 1.03 1.24 1.38 1.98 1.71 1.46 1.71 1.46 2.06 2.17-.06.09-.12.19-.16.26-.39.11-.59-.13-.81-.36-.27-.27-.51-.56-.78-.83.09.17.18.33.27.5.01.04.03.08.06.13-.42-.05-.83-.12-1.24-.18.83.95 1.6 1.93 2.26 2.91.47.43.8.74 1.11 1.02l.15.85c.3.41.58.78.87 1.17-.11.21-.19.37-.23.45-.28.18-.55-.14-.74.25.11.3.25.65.4 1.04-.17.13-.31.23-.46.35-.42-.32-.68-.71-.96-1.09-.12-.15-.3-.38-.57-.13.04 1.04.85 1.52 1.48 2.14l-.06.36c-.44-.07-.79-.24-1.13-.51-1.13-.86-2.32-1.64-3.31-2.69-.12-.14-.33-.35-.63-.12l.28 1.13c1.02.14 1 1.11 1.34 1.73.3.36.59.68.86 1.01.03.05.01.15.02.24-.08.06-.17.13-.25.2-.49-.31-.96-.62-1.47-.95-.3 0-.63.01-1.02.02.03.37.06.68.09.96-.11.2-.2.38-.31.6-.58-.45-.96-1.06-1.58-1.41-.55-.31-1.01-.83-1.55-1.18-.57-.37-1.17-.71-1.78-.95-.21.27-.17.49-.03.85.14.12.38.31.6.52.2.19.44.36.54.6.17.4.52.56.8.81.112.2.25.398.366.6.08.064.159.132.238.195.109.086.266.107.382.152.075-.13.143-.205.138-.277-.027-.278-.045-.566-.114-.84-.057-.245-.003-.383.21-.448.577.46 1.142.89 1.699 1.342.14.115.245.294.368.442.532.39 1.073.78 1.626 1.18.237-.201.443-.38.659-.557.253.067.475.135.696.194.23.058.46.095.734.15.327.61.59 1.359 1.433 1.42.083-.17.165-.351.257-.532.124-.008.237-.025.402-.036.743.626 1.506 1.25 2.27 1.905.329.29.648.59 1.115.603.104.004.206-.024.309-.03.069.275.135.508.217.824.482.445 1.029.917 1.557 1.412.539.513.954 1.19 1.674 1.62.1-.201.185-.361.277-.543-.761-.76-1.478-1.458-2.184-2.168-.342-.331-.714-.648-.888-1.134-.038-.101-.014-.216-.017-.423.19.072.367.07.456.169.789.87 1.798 1.448 2.71 2.146.479.363.983.652 1.287 1.212.068.117.2.163.363.07-.15-.41-.512-.642-.672-1.07-.13.04-.25.06-.36.09-.3-.18-.52-.52-.71-.82-.025-.035-.048-.075-.072-.112 0-.457-.011-.914-.038-1.37.166-.05.34.003.54.093.3.71.869 1.17 1.46 1.61.25.18.47.41.71.63.179.16.349.32.61.55.02-.29.029-.47.049-.64-.35-.6-.83-1.02-1.24-1.52-.16-.2-.32-.41-.47-.62.49.12 1 .18 1.51.18-.58-.73-1.18-1.44-1.79-2.1.02-.39.01-.77-.03-1.14.1.05.2.11.33.18.09-.39-.13-.87.23-1.01.39-.21.66.22 1.01-.08.08-1.16.18-2.34-.45-3.43a.86.86 0 0 1-.02-.81c.16-.26.37-.39.69-.29.49.33.47.96.64 1.31.58.72 1.07 1.32 1.59 1.98.51.08.86.49 1.16.96.15.23.29.47.47.67.18.19.19.54.52.58.03-.02.07-.04.08-.08.02-.07.05-.15.02-.22-.47-1.22-.99-2.41-1.86-3.39-.21-.23-.35-.5-.49-.79-.29-.64-.64-1.26-1.24-1.66-.06-.04-.1-.12-.14-.18-.07-.18-.14-.36-.2-.53-.18.01-.32.01-.43.02-.27-.79-.53-1.52-.8-2.31.23-.21.45-.41.69-.62.013-.305.03-.607.045-.912l-.213-.248c.094-.151.169-.28.245-.411.022-.433.04-.87.064-1.3 0-.07.059-.14.13-.27l.679.02c.09.08.16.13.2.19.575 1.013 1.382 1.813 2.156 2.638-.576-.916-1.204-1.792-1.954-2.577-.29-.3-.6-.6-.76-.98.06-.32.11-.6.43-.69.43.1.75.37 1.01.72.72.93 1.61 1.69 2.34 2.6.11.13.3.19.54.33.02-.26.09-.42.04-.55-.08-.26-.18-.53-.35-.74-.45-.58-.94-1.14-1.42-1.7-.28-.32-.52-.68-.85-.93-.52-.4-.74-.96-1.05-1.55.23-.12.39-.21.59-.32.6.56 1.26 1.03 1.77 1.67.25.31.54.57.81.84.05.05.14.04.24.07.06-.08.12-.17.17-.23-.04-.78-.66-1.17-.95-1.76-.31.04-.52-.12-.66-.37-.21-.42-.45-.83-.53-1.26.18-.32.38-.46.74-.36.5.47.77 1.31 1.65 1.56-.06-.36-.1-.62-.15-.88.11-.21.22-.4.36-.66.37.41.68.75 1 1.09.5.54 1 1.09 1.51 1.63.31.34.65.65 1.13.67.02-.24-.07-.44-.23-.62-.46-.53-.91-1.06-1.31-1.65a4.81 4.81 0 0 0-1.39-1.38c-.26-.16-.49-.36-.72-.53-.15-.51-.07-.98-.02-1.51.2.2.33.39.51.5.38.22.63.54.85.93.17.3.43.55.66.81.78.87 1.67 1.62 2.34 2.59.15.22.37.4.57.58.03.03.12 0 .23-.01-.02-.15-.05-.3-.08-.45-.03-.19-.05-.39-.07-.54-.37-.6-.72-1.16-1.06-1.72-.15.1-.24.16-.36.23-.13-.33-.25-.67-.39-1.03-.56-.75-1.32-1.38-1.64-2.38.06-.09.13-.18.2-.26.02-.02.07 0 .15-.01.75.75 1.52 1.51 2.12 2.51.4.19.7.66 1.25.76.19-.53 0-.94-.31-1.31-.53-.63-1.05-1.26-1.58-1.88-.28-.33-.56-.65-.57-1.17.14-.04.27-.08.45-.12.49.51.96 1.03 1.44 1.53.11.12.21.34.41.25.16-.76.31-1.5.46-2.23.03 0 .06.01.08.01l.06 1.06c.38.47.72.94 1.1 1.38.41.46.88.88 1.29 1.34.69.8 1.43 1.54 2.23 2.21.12.1.26.17.43-.07-.19-.45-.38-.95-.58-1.43l-.3-.25-.39-.78c-.03-.04-.07-.08-.1-.13-.04.04-.08.08-.11.12-.22-.14-.44-.28-.65-.41l.03-.9c.81.09 1.03.93 1.58 1.24.31-.01.42-.44.81-.26.13.15.33.34.48.57.56.9 1.21 1.69 1.97 2.43.63.61 1.08 1.42 1.62 2.13.17.22.35.42.49.59l.46.01c.21.49.41.95.62 1.42.58.2 1 .57 1.29 1.12.16.3.41.56.64.83.4.477.82.95 1.22 1.432a9.543 9.543 0 0 1-.641-1.182c-.11-.26-.21-.52-.36-.74-.4-.58-.82-1.13-1.22-1.71-.13-.19-.22-.41-.31-.63-.33-.8-.69-1.58-1.26-2.24-.3-.34-.51-.78-.77-1.17-.04-.06-.09-.12-.14-.18-.13-.06-.27-.13-.45-.21-.08-.23-.23-.49-.24-.75-.01-.45-.15-.86-.3-1.26-.02-.06.03-.14.05-.24.16-.07.33-.15.48-.22.47.23.7.65.98 1.02.04.05.13.06.2.09.15-.12.29-.23.46-.36l.42.03c1.1 1.41 1.28 1.59 1.81 1.74-.63-.87-1.21-1.68-1.82-2.51.08-.16.14-.28.23-.47.39.28.72.53 1.01.74.1.28.19.5.26.68.17.11.3.19.42.26.53 0 1.04-.07 1.49-.38-.07-.31-.13-.61-.22-.91-.09-.34-.21-.66-.32-.99l.5-.47c.54 1.32 1.46 2.27 2.25 3.32.38.15.77.29 1.24.46l.63.89c.29.41.52.88 1.08.94.04-.9.07-1.8.11-2.69.03-.01.07-.01.1-.01.05.22.09.44.14.66.57.74 1.12 1.48 1.71 2.19.26.32.47.71.88.87.02-.27.01-.53-.16-.77-.3-.45-.58-.91-.9-1.41.09-.12.17-.24.26-.35.69.3.82 1.08 1.32 1.49.53.45 1.05.89 1.34 1.49.28.11.49.19.76.3.18.35.38.73.56 1.12.15.3.34.53.66.62.15.04.29.02.4-.21-.31-.5-.63-1.03-.93-1.52.03-.27.07-.5.1-.73-.36-.24-.68-.44-.97-.63-.08-.38-.08-.38.08-.73.13.03.27.06.41.09.18.05.36.11.5.16.22-.17.39-.3.61-.48.61.81 1.35 1.35 2.24 1.71.38.46.76.95 1.16 1.43.01.02.07 0 .14 0 .02-.09.05-.19.07-.27-.34-.61-.95-.95-1.25-1.64.21-.14.39-.26.58-.38.37.11.73.21 1.09.3.02.5.23.91.45 1.27.31.1.56.18.83.26.28.52.56 1.03.85 1.56l.88.02c-.13-.4-.3-.77-.68-1.02-.19-.13-.26-.46-.44-.8.12-.12.22-.23.3-.31.76.63 1.4 1.17 2.11 1.77.11.15.26.37.38.54.27.12.48.21.69.3.39 1.09 1.36 1.45 2.23 2.03.12-.15.27-.27.34-.44.08-.21.09-.46.15-.69.02-.07.08-.13.17-.24l.77.02c.62.68 1.45 1.1 2.07 1.8.49.55 1.03 1.05 1.55 1.57.21.75.86.94 1.4 1.21.47.45.81.99 1.4 1.3.21-.2.39-.38.6-.57 1.01.55 1.63 1.61 2.55 2.2.24-.21.43-.38.65-.56.17.13.34.25.5.37.52.72 1.06 1.43 1.74 1.89.01.11.01.22.04.33.07.14.16.41.32.63.51.69 1.03 1.37 1.56 2.04.29.37.56.76.89 1.08.57.53 1.11 1.08 1.53 1.75.03.05.08.09.13.12.01.02.01.05.03.08.18.33.25.66.52.94.12.12.25.15.38.12.51.56 1.06 1.16 1.27 1.87.34.38.6.67.89.98.2.72.64 1.3 1.21 1.74-.02.18-.04.29-.07.53"/>
    <path fill="#000000" d="M93.168 206.015c.37.54.71 1.11 1.05 1.68.3.5.57 1.02.86 1.53.07.13.16.25.25.39.26-.2.06-.36.02-.52-.06-.19-.15-.36-.19-.56-.05-.18-.06-.38-.08-.55-.56-.52-.75-1.22-1.01-1.87-.24-.63-.51-1.22-1.01-1.68-.12.1-.2.17-.33.29.11.43.17.89.44 1.29m4.15 3.84c.08.12.22.19.36.32.06-.16.13-.27.13-.37-.04-.76-.14-1.53-.54-2.17-.69-1.14-1.16-2.42-1.93-3.51-.22-.32-.31-.72-.54-1.26-.76-.58-.91-1.65-1.47-2.49-.38.07-.3.36-.28.69.16.24.36.53.55.82.01.04.04.08.04.11-.09.96.56 1.62.88 2.42.15.4.3.81.46 1.22.12.29.23.59.38.87.63 1.13 1.22 2.29 1.96 3.35m.23 2.89c.19-.06.17-.23.13-.36-.05-.13-.15-.23-.25-.37-.19.33-.15.56.12.73m.32-20.35c.18-.19.07-.27-.04-.34.01.1.02.2.04.34m.02-2.5c.01.1.02.2.04.32.17-.18.06-.25-.04-.32m.35 21.86c.34.56.66 1.08.96 1.58.35-.04.33-.25.3-.44-.03-.15-.09-.31-.17-.44-.25-.4-.41-.81-.5-1.29-.07-.41-.26-.83-.73-1.01-.21.58.19 1.08.14 1.6m-1.62-31.7c-.03.18-.09.31-.05.4.48 1.07.64 2.28 1.19 3.32.09.17.12.39.35.43.04-.05.12-.1.13-.16.02-.47.03-.95.04-1.44-.66-.75-.88-1.81-1.66-2.55m-.05 7.88c0 .25.01.49.35.59.07-.36-.15-.47-.35-.59m1.06 1.65c0-.23-.04-.44-.27-.56-.04.29-.04.3.27.56m-.8 14.67c.01.1.03.21.06.39.13-.25.05-.33-.06-.39m2.91-11.37c.02-.03.03-.06.05-.09-.01-.03-.03-.06-.04-.09-.02.04-.05.08-.08.13 0 0 .05.03.07.05m-5.6-15.41c.01.04 0 .08.02.11.01.02.05.02.07.02.02-.03.03-.06.04-.09-.04-.01-.09-.03-.13-.04m2.13 9.85c-.27-.5-.55-.99-.88-1.57-.07.18-.16.29-.13.34.24.59.48 1.2 1.05 1.54 0-.11.01-.22-.04-.31m-1.36-2.53c-.36-.6-.74-1.18-1.12-1.76-.03-.05-.12-.08-.21-.13-.02.11-.08.23-.06.32.17.7.56 1.28 1.01 1.81.1.11.31.12.48.18-.03-.15-.03-.31-.1-.42m-.66 2.76c-.09-.28-.17-.55-.25-.83-.08-.3-.16-.59-.29-1.09-.13.89-.04 1.5.54 1.92m-2.33 16.11c.06.25.13.55.2.82.27.08.4-.03.51-.26-.06-.44-.12-.91-.17-1.35-.48-.93-.71-1.93-.99-2.78.18-.65.67-.46 1.02-.64-.1-.47-.2-.92-.29-1.32.14-.29.27-.47.55-.42.35.18.41.57.54.88.21.48.51.88.78 1.31.73 1.15 1.68 2.15 2.15 3.49.11.31.22.67.58.81-.01-.11 0-.23-.04-.32-.36-.91-.72-1.83-1.11-2.73-.55-1.22-1.14-2.42-1.7-3.63-.28-.62-.62-1.18-1.13-1.57-.22-.63-.32-1.26-.67-1.8-.07-.12-.07-.31-.05-.47.01-.1.1-.2.16-.32.16.02.3.04.5.06.15.31.3.63.44.95.28.62.59 1.19 1.01 1.72.49.6.93 1.27 1.29 1.96.31.6.68 1.15 1.03 1.71.25.4.51.79.78 1.17.02.04.12.02.24.03-.05-.18-.07-.32-.13-.46-.2-.47-.46-.92-.6-1.4-.15-.51-.39-.97-.68-1.37-.51-.71-.82-1.51-1.09-2.33-.26-.79-.7-1.49-1.05-2.24-.13-.27-.39-.46-.58-.68-.17.1-.28.17-.48.28-.13-1.03-.63-1.96-.07-2.94-.39-.91-.14-1.84-.2-2.75-.1-.26-.21-.51-.31-.77-.09-.25-.18-.51-.28-.78.32-.27.6-.51.85-.73-.08-.74-.48-1.35-.3-2.06.14-.23.27-.46.38-.64-.14-.54-.25-1-.37-1.48.18-.22.34-.43.52-.66.35.51.66.95.99 1.43l.07.41c.82 1.33 1.52 2.47 2.22 3.6.07.11.13.31.33.16-.07-.94-.49-1.73-.96-2.5-.12-.2-.25-.4-.35-.61-.15-.32-.32-.63-.42-.97-.33-1.18-1.08-2.07-1.86-3.04.1-.76-.4-1.43-.64-2.21.2-.2.39-.38.59-.57-.04-.51-.08-1.02-.13-1.56-.68-.52-.68-1.25-.54-2.02.31-.27.6-.51.91-.77.62.4.43 1.17.76 1.67.67.96 1.5 1.8 1.95 2.92.12.33.3.64.43.97.39.95.82 1.87 1.48 2.58.25.15.52-.16.7.17-.04.24-.09.51-.13.78.04.67.55 1.04.84 1.5.05.26.09.49.13.7-.29.2-.54.37-.78.54-.02.68-.04 1.31-.05 1.94.35.91.91 1.67 1.4 2.47.31.51.6 1.02.89 1.53.03.06.01.15.01.24-.09.18-.19.34-.49.31-.53-.51-.83-1.37-1.65-1.77.66 1.45 1.28 2.81 1.9 4.18-.11.94.08 1.82.36 2.7.18.57.29 1.16.41 1.74.02.1-.05.22-.09.34-.39.03-.65-.17-.98-.51-.18-.53-.39-1.17-.62-1.86-.18-.15-.42-.35-.57-.48-.23-.39-.02-.85-.47-1.08-.12.23-.24.46-.36.71.13.39.23.78.39 1.13.44.98.91 1.93 1.36 2.9.08.17.11.36.17.55-.23.21-.42.39-.6.55.23 1.41.86 2.58 1.63 3.66-.03.14-.05.26-.08.4-.25.08-.49.16-.73.23-.09.61.63 1.11.13 1.76-.12-.01-.26-.02-.46-.04-.16-.32-.28-.65-.48-.94-.18-.27-.07-.73-.54-.9-.02.21-.08.37-.04.51.17.65.37 1.29.57 1.93.35 1.09.7 2.17 1.06 3.27-.14.09-.22.15-.33.22-.28-.4-.42-.88-.84-1.14-.14-.09-.25-.33-.26-.51-.03-.71-.54-1.22-.67-1.87-.02-.08-.16-.12-.26-.2-.15.39-.11.73 0 1.08.34 1.1.65 2.21 1.01 3.3.16.48.22.92-.01 1.38-.04.11-.05.23-.07.32.2.59.51 1.13.56 1.71.05.61.46 1.21.12 1.84-.08.04-.15.1-.22.1-.11-.01-.21-.05-.34-.09-.3-.49-.57-1.03-1.14-1.35-.1.03-.24.08-.32.1-.33.63.1 1.15.03 1.79-.07.14-.17.35-.29.55-.01.02-.06.01-.13.02-.47-.45-.73-1.1-.85-1.73-.15-.77-.51-1.31-.98-1.62-.94-1.68-1.8-3.22-2.67-4.77-.18-.17-.37-.34-.38-.34-.39-.81-.66-1.38-.94-1.94-.28-.55-.57-1.1-.86-1.65.34-.45.62-.5.94-.14m8.345-64.235c-.01.02.02.06.03.09.02 0 .06 0 .07-.01.02-.02.03-.07.02-.09-.04-.1-.09-.1-.12.01m-.62-.92c-.23 0-.41-.01-.66-.02-.03.19-.05.36-.07.5.31.28.6.25.88.14.14-.23-.04-.36-.15-.62m-3.41-.09c-.11.07-.19.12-.33.22.21.25.4.47.61.71.13-.11.2-.17.28-.24-.18-.22-.36-.45-.56-.69m-1.03 1.16c-.2.2-.02.32-.01.46-.13.04-.27.08-.47.13.14.29.24.52.35.77.41-.12.3-.43.32-.67.25.24.53.45.75.72.5.64.98 1.31 1.46 1.96.05.07.07.16.12.2.7.56 1.13 1.37 1.79 1.99l.29-.16c0-.1.03-.18 0-.25-.11-.34-.24-.67-.3-.83-.41-.49-.69-.87-1-1.2-.46-.47-.91-.95-1.41-1.36-.36-.29-.72-.57-.98-.97-.23-.37-.57-.59-.91-.79m.17-2.63c-.02.17-.05.29-.02.32.05.05.16.04.33.06-.13-.15-.19-.23-.31-.38m-1.87 4.07c-.49.21-.62-.37-.95-.46-.04.08-.08.12-.07.15.04.1.07.24.14.3.62.52.8 1.44 1.6 1.87.08-.13.15-.25.25-.41-.33-.5-.65-.97-.97-1.45m-1.63 4.22c.15.44.37.83.7 1.15.42.41.73.97 1.26 1.26 0-.15.04-.32-.02-.43-.35-.63-.58-1.35-1.11-1.94-.26-.01-.55-.03-.83-.04m.05-5.44c-.24-.28-.42-.65-.92-.54.05.37.09.71.13.99.27.46.63.7 1.04.88-.08-.45-.17-.89-.25-1.33m-1.44 6.85c.05.11.11.21.36.07a8 8 0 0 1-.36-.07m-.48-2.62c-.08.15-.17.25-.16.32.05.29.06.29.46.53.04-.06.09-.11.18-.21-.14-.19-.29-.39-.48-.64m-.53 1.72c.04.34.27.38.52.37-.01-.1-.03-.2-.04-.29-.15-.15-.3-.23-.48-.08m3.8-1.7c.07.64.42.86.7 1.18.23-.59.15-.74-.7-1.18m.38-5.34c.09.13.16.21.27.36.13-.4.08-.5-.27-.36m-3.89.24c.09.12.17.25.32.46.07-.45-.15-.44-.32-.46m-.05-.63c-.17-.04-.3-.07-.44-.11-.02.12-.06.22-.03.25.15.16.32.3.48.44 0-.18-.01-.36-.01-.58m-2.81 4.87c0 .07 0 .13.01.19.05.14.1.29.29.16 0-.21-.14-.29-.3-.35m19.08-.07c.1-.08.15-.14.17-.16-.01-.36-.13-.5-.42-.38-.14.23-.01.36.25.54m2.71 1.51c-.01-.42-.16-.56-.4-.61 0 .28 0 .28.4.61m-1.77-2.84c.62.54 1.17 1.14 1.73 1.72.27.28.6.49.88.75.3.29.58.59.86.88.14-.11.23-.17.32-.24.06.29.12.56.18.84l.91.58c.8 1 1.42 2.04 2.04 3.12-.02.17-.05.35-.07.53-.5.05-.5.05-.99-.29-.34-.72-.69-1.47-1.02-2.16-.43-.18-.78-.32-1.02-.42-.69-.64-1.01-1.48-1.81-2.18.06.87.56 1.3.8 1.91-.15.15-.31.3-.47.47-.7-.5-1.14-1.24-1.84-1.64-.73-.4-1.11-1.33-1.96-1.43-1-1.35-2.14-2.5-3.47-3.76-.07-.1-.09-.5-.41-.69-.07.05-.13.09-.24.17.11.24.18.51.34.72 1.13 1.54 2.18 3.15 3.65 4.45-.06.21-.11.43-.17.67-.28-.03-.5-.04-.69-.06-.82-.9-1.62-1.75-2.4-2.62-.64-.74-1.33-1.39-2.21-1.69-.11-.28-.19-.5-.22-.56-.42-.33-.72-.56-1.01-.8-.27-.22-.53-.45-.79-.68-.28-.24-.42-.67-.91-.71-.04.16-.08.3-.11.44.1.03.23.04.29.11.53.67 1.05 1.36 1.56 2.04.29.39.61.71 1.11.75.1.01.2 0 .29.01.05.35.09.66.14.98 1.44 1.54 2.66 3.23 3.83 5.15-.26-.04-.43-.02-.53-.09a3.814 3.814 0 0 1-.59-.56c-.77-.83-1.52-1.67-2.28-2.51-.13-.14-.27-.26-.49-.48-.05.35-.09.57-.1.79-.02.44 0 .88-.01 1.32-.01.2-.07.4-.34.43-.38-.24-.64-.65-.94-1-.15-.18-.28-.38-.47-.5-.7-.49-1.29-1.1-1.84-1.77-.43-.53-.97-.86-1.56-1.06-.31.17-.26.43-.21.65.11.48.39.85.71 1.21.43.49.94.92 1.2 1.48 0 .41-.14.61-.45.65-.49-.08-.77-.48-1.11-.79-.07-.06-.19-.05-.35-.09.2.67.38 1.26.56 1.86-.26.34-.49.65-.73.97.28.6.54 1.17.8 1.73-.2.38-.42.69-.91.63-.33-.57-.66-1.15-1-1.71-.02-.05-.12-.06-.18-.08-.15.18-.29.36-.42.51-.16.02-.27.03-.44.04-.16-.17-.38-.34-.52-.56-.27-.43-.48-.9-.74-1.34-.16-.27-.36-.5-.52-.73-.26.05-.44.1-.62.12-.21.02-.41-.27-.67.05.04.14.06.35.15.5.55.81 1.1 1.62 1.81 2.29.76.73 1.33 1.61 1.72 2.62-.07.05-.12.09-.22.17-.21-.12-.44-.26-.69-.41-.18-.48-.54-.8-.93-1.14-.7-.61-1.33-1.3-2.12-1.79-.09-.06-.13-.19-.21-.28-.1-.11-.2-.25-.33-.29-.35-.11-.57-.39-.8-.65-.43-.45-.83-.93-1.25-1.39-.15-.17-.34-.29-.55-.48-.17.17-.29.3-.38.39-.02.47.34.77.26 1.19-.66-.23-.44-.96-.65-1.28-.54-.46-.97-.83-1.39-1.19-.17-.61-.32-1.18-.49-1.79.21-.14.39-.26.61-.41.2.3.37.56.56.82l1.35.77c.36.83.98 1.43 1.84 1.68.16.27.3.5.46.76.14-.95.04-1.16-.91-2-.05-.14-.11-.29-.16-.42-.32-.17-.62-.33-.93-.49-.32-.55-.63-1.08-.93-1.59.16-.36.33-.61.69-.66.19.24.37.5.59.7.12.11.31.14.47.2-.17-.29-.35-.57-.55-.9.2-.18.39-.34.63-.55.22.24.47.4.57.63.24.57.68.94 1.11 1.36.14-.02.28-.04.5-.08-.1-.39-.18-.73-.23-.94-.44-.79-1.09-1.14-1.69-1.59.05-.18.09-.32.15-.51.6.27 1.15.52 1.71.77.36.56.71 1.13 1.32 1.49.13-.08.25-.14.41-.24-.22-.35-.47-.61-.58-.93-.14-.38-.25-.76-.61-.96-.11 0-.21-.01-.34-.01-.35-1.09-1.41-1.68-1.76-2.8.12-.13.21-.24.29-.32.42.05.71.43 1.12.31.36-.25.02-.8.46-1.09.83.49 1.63 1.07 2.44 1.64.18.13.36.32.46.53.36.74.97 1.2 1.61 1.64.05.04.14.02.28.03l.09-.65c-.6-.46-.92-1.11-1.24-1.73-.32-.62-.89-1.08-1.07-1.87.17-.1.32-.2.51-.32.57.34 1.12.67 1.69 1.02.06-.11.1-.2.14-.27-.29-.57-.88-.95-.74-1.69.51-.16.51-.16 1.18-.08.33.65.83 1.17 1.52 1.32.15.18.25.3.35.43.16.21.31.44.49.64.21.24.5.04.75.12.17.21.35.41.54.64.16-.03.32-.03.45-.1.08-.04.13-.17.19-.25-.34-.69-1.23-.48-1.6-1.22.05-.5-.26-.96-.49-1.39.05-.38.18-.59.6-.59.22.24.46.54.74.81.28.26.61.47.87.75.29.32.69.3 1.04.45.26.44.45.96.81 1.28.49.45.84 1.02 1.3 1.47.44.44.83.92 1.33 1.3.45.34.79.84 1.17 1.26.09-.03.16-.05.22-.09.02-.01.03-.06.04-.11-.24-.42-.48-.85-.74-1.3-.75-.63-1.52-1.27-2.29-1.91-.15-.23-.31-.45-.44-.7a7.42 7.42 0 0 1-.34-.87c-.02-.06.04-.14.06-.22.16-.16.34-.13.63.01.44.72.94 1.54 1.94 1.65.5.59.94 1.2 1.62 1.55.32.75.87 1.32 1.44 1.82m1.707-1.146-.022-.015v-.017c.007-.003.015-.005.022-.009v.041"/>
    <path fill="#000000" d="m108.608 140.612-.347.138c-.494-.452-.943-.872-1.403-1.28-.486-.43-.982-.85-1.5-1.299-.08-.72-.083-.72.17-1.14.743.273 1.152.982 1.72 1.482.367.325.652.764.938 1.18.19.274.485.512.422.92m24.73 58.501.658.401c.358.672.672 1.253.977 1.84.09.173.138.359-.07.531l-1.07-.819.082-.666c-.13-.234-.296-.497-.428-.778-.074-.157-.105-.337-.149-.509m-.042-.044c.011 0 .02.003.031 0l.011.044-.035-.021-.007-.022m73.547 1.484c.06-.34.05-.36-.26-.77 0 .28-.04.58.26.77m1.54 2.32c.09-.71-.37-1.07-.88-1.4.14.56.39 1.06.88 1.4m3.37 1.37c.07.35.13.72.29 1.03.34.67.73 1.32 1.12 1.97.28.44.62.84 1.29.99.03-.25.05-.4.07-.59-.1-.16-.2-.32-.31-.49-.3-.46-.63-.89-.82-1.43-.26-.77-.86-1.32-1.36-1.93-.29.04-.31.26-.28.45m.33 4.5c.11.21.23.42.53.41.27-.25.16-.57.14-.89-.39.01-.53-.35-.79-.55-.22.39-.03.71.12 1.03m3.42-2.59c.13.29.39.51.54.78.15.27.25.57.37.85.2-.88.12-1.69-.38-2.61-.94-.98-1.75-2.3-2.57-3.62-.39-.63-.79-1.26-1.33-1.81-.1.11-.18.19-.28.3.07 1.01.37 1.89 1.13 2.65 1.02 1.01 1.93 2.13 2.52 3.46m1.91-7.62c-.13-.8-.34-1.36-.81-1.84-.13.04-.23.07-.37.12.05.63.33 1.14.7 1.61.06.06.21.05.48.11m.28 3.36c.51.6.98 1.22 1.33 1.93.05.09.17.14.29.24.03-.15.1-.29.06-.36-.47-.77-.9-1.56-1.71-2.15.01.15-.02.28.03.34m2.23.07c-.05-.17-.08-.36-.18-.5-.47-.63-.97-1.23-1.45-1.85l-.42-.51c-.1.6.27 1.06.61 1.42.36.36.63.79 1 1.14.13.11.29.2.44.3m.42 1.23c.09-.48.09-.49-.39-1.16-.08.44.12.78.39 1.16m-2.36-7.43c.25.7.55 1.37 1.27 1.84-.23-.83-.58-1.31-1.27-1.84m3.23 9.02c.08-.06.15-.12.42-.32-.31.09-.39.1-.46.14-.02.01.02.12.04.18m-23-18.87c.36.54.69 1.12 1.03 1.7.35.6.5 1.25.75 1.85.27.21.52.4.74.57.14.9.38 1.69 1.01 2.3.59.57.99 1.24 1.25 2.01.1.3.29.57.49.81.2.25.46.44.58.55.17.42.23.71.39.93.37.52.65 1.09.91 1.67.03.06.13.09.19.14.15 0 .31 0 .46.01.08.17.16.34.25.51.31-.06.58-.12.81-.17.46.25.62.65.85 1.03.63 1.06 1.1 2.24 2.2 2.83.41.54.45 1.32 1.32 1.38.17-.95.14-1.82-.52-2.6-.28-.33-.52-.7-.81-1.03-.29-.33-.56-.67-.6-1.13.11-.25.25-.41.58-.31.26.32.52.67.82.98.18.18.42.22.59.01.4-.76-.3-1.31-.3-1.9.07-.35.22-.51.51-.5.39.29.33.79.61 1.24.05.05.16.16.28.27.38.35.8.66.97 1.19.03.11.13.19.2.29.48.64.94 1.29 1.43 1.92.29.37.57.75.95 1.06.27-.34.14-.65.11-.94-.64-.72-1.31-1.39-1.59-2.35-.1-.33-.31-.66-.56-.9-.24-.24-.36-.52-.52-.79-.44-.69-.76-1.46-1.41-2.01.04-.14.07-.28.1-.4.43-.1.78-.11 1.08.12.45.85.88 1.69 1.31 2.51.52.37.99.73 1.27 1.28.18.33.46.51.84.53.03-.13.08-.22.06-.27-.42-.95-.85-1.88-1.24-2.75-.62-.63-1.21-1.17-1.42-2.04.14-.04.27-.08.34-.1.6.16.71.86 1.29.92.29-.63.29-.67.16-1.9.2-.07.41-.14.49-.17.37.03.44.41.74.27.13-.33-.02-.62-.13-.92-.15-.37-.32-.72-.5-1.08-.11-.64-.33-1.24-.57-1.84.02-.31.04-.62.05-.94.1.15.21.29.3.45.5.94 1.32 1.69 1.71 2.71.02.07.08.13.13.2.31.45.62.91 1.04 1.53.91.33 1.01 1.56 1.77 2.26.25.87.89 1.49 1.39 2.2.05.06.09.13.15.17.16.3.34.6.55.9.37.53.73 1.06 1.11 1.58.09.18.18.37.24.56-.22.73-1.03.83-1.32 1.51.13.83.28 1.72.43 2.68-.27.05-.49.09-.72.14-.23-.33-.43-.61-.63-.9-.4.08-.74.15-1.13.23 0 .26-.06.5 0 .71.06.27.22.51.33.77.02.07-.01.15-.02.23-.36.29-.36.29-.85.2-.41-.48-.55-1.11-.83-1.7-.16-.08-.33-.18-.52-.28-.27-.6-.58-1.18-1.2-1.51.05.17.09.35.17.51.3.61.63 1.2.91 1.82.19.44.34.9.45 1.36.05.17-.02.4-.1.57-.06.11-.23.18-.34.27-.78-.43-.6-1.33-1.08-1.84-.21-.13-.38-.13-.53.15.19.76.39 1.57.57 2.31-.13.48-.47.58-.81.66-.25-.38-.44-.79-.73-1.11-.46-.51-.86-1.04-1.14-1.67-.03-.07-.15-.1-.27-.17 0 .15-.02.22 0 .29.11.5.26 1 .34 1.51.07.4-.01.8-.48.94-.45-.19-.73-.68-1.33-.61-.08.4-.15.82-.23 1.26-.29-.01-.52-.01-.71-.02-.28-.21-.53-.39-.79-.59-.11.13-.19.21-.3.34-.08-.08-.16-.17-.23-.24 0-.24 0-.48-.02-.71-.32-.45-.57-.81-.81-1.18-.23-.35-.64-.57-.79-1.14.32.17.54.29.82.43.07-.2.11-.34.15-.47.19.11.38.23.57.36.34-.52-.09-.93-.09-1.35-.57-.49-.98-1.07-1.35-1.67-.31-.5-.68-.92-1.18-1.22-.04.62.28 1.09.67 1.56.49.6 1 1.22 1.12 2.03-.33-.06-.66-.13-1.01-.2-1.16-1.31-1.95-2.87-2.95-4.3-.2-.1-.41-.21-.52-.27-.27-.6-.47-1.12-.74-1.61-.58-1.03-1.22-2.03-1.77-3.09-.42-.8-1.05-1.49-1.38-2.35-.07-.18-.22-.35-.36-.48-.53-.48-.79-1.08-.8-1.79-.65-.53-.8-1.28-1.02-2 .03-.15.06-.31.08-.43-.2-.28-.39-.52-.57-.77l-.03-.85c-.37-.2-.72-.38-1.08-.58.02-.27.04-.54.06-.76-.29-.24-.53-.44-.74-.62.03-.64.04-.64.6-.76"/>
    <path fill="#000000" d="M211.749 210.258c-.001-.01-.006-.018-.007-.028a.65.65 0 0 0 .028.006zm.252.257a.1.1 0 0 0-.017-.01l.027-.02-.01.03"/>
  </g>
</svg>
