<svg xmlns="http://www.w3.org/2000/svg" xmlns:xlink="http://www.w3.org/1999/xlink" width="321.51" height="75.48" viewBox="0 0 321.51 75.48"><defs><linearGradient id="a" x1="-3.434" y1="0.5" x2="1.545" y2="0.5" gradientUnits="objectBoundingBox"><stop offset="0" stop-color="#00ebeb"/><stop offset="1" stop-color="#007ee5"/></linearGradient><linearGradient id="b" x1="-0.452" x2="4.526" xlink:href="#a"/><linearGradient id="c" x1="-1.22" x2="3.759" xlink:href="#a"/><linearGradient id="d" x1="-2.667" x2="2.312" xlink:href="#a"/></defs><g transform="translate(-726.8 -349.63)"><rect width="30.41" height="30.28" rx="15.14" transform="translate(1048.31 380.78) rotate(180)" fill="url(#a)"/><rect width="30.41" height="30.28" rx="15.14" transform="translate(957.63 425.04) rotate(180)" fill="url(#b)"/><rect width="30.41" height="77.08" rx="15.205" transform="translate(1004.31 350.08) rotate(90)" fill="url(#c)"/><rect width="30.41" height="77.08" rx="15.205" transform="translate(1048.3 394.7) rotate(90)" fill="url(#d)"/><path d="M887.27,352.01l-25.56,5.55.38,5.17,25.56-5.44Z" fill="#002a4c"/><path d="M891.11,375.41v23.08h-5.06q-4.81,0-4.81-5.63V379H870.63v15.57c0,1.64-.55,2.7-1.67,3.19a10,10,0,0,1-4,.73,5.83,5.83,0,0,1-4.44-1.51,5.75,5.75,0,0,1-1.43-4.12V379H848.61v15.57a6,6,0,0,1-.32,2.17,2.39,2.39,0,0,1-1.06,1.18,4.57,4.57,0,0,1-1.92.49c-.79,0-1.78.08-3,.08h-9.7v-5.22q0-8.89-4.33-13.91t-12.88-5a18.718,18.718,0,0,0-5.3.77,20.611,20.611,0,0,0-5,2.25,21.588,21.588,0,0,0-4.32,3.5,19.731,19.731,0,0,0-3.26,4.49V349.63H787v48.86H753.27a8.538,8.538,0,0,1-2.16-.28,5.491,5.491,0,0,1-2-.94,5,5,0,0,1-1.39-1.72,6,6,0,0,1-.53-2.69V379h-10.6v24.3a40.275,40.275,0,0,1-.29,5.18,8.168,8.168,0,0,1-1.26,3.59,5.559,5.559,0,0,1-2.94,2.08,18.41,18.41,0,0,1-5.3.73v10a38.379,38.379,0,0,0,9-1.07,14.35,14.35,0,0,0,6.229-3.26,14,14,0,0,0,3.69-6,31.138,31.138,0,0,0,1.32-9.26,6.32,6.32,0,0,0,3.26,2.12c.59.15,1.12.27,1.59.35h.18a9.108,9.108,0,0,0,1,.09h89.08a47.889,47.889,0,0,0,9-.69,9.27,9.27,0,0,0,5.71-3.55,11.239,11.239,0,0,0,4,2.89,16,16,0,0,0,7,1.35c.87,0,1.78,0,2.73-.08a14.3,14.3,0,0,0,2.9-.49,10.611,10.611,0,0,0,2.85-1.27,10,10,0,0,0,2.61-2.4,9.44,9.44,0,0,0,3.76,3.22,16.11,16.11,0,0,0,6.52,1h12.48V375.41ZM822,398.49H798a26.39,26.39,0,0,1,2.74-5.5,23.362,23.362,0,0,1,3.79-4.53,16.79,16.79,0,0,1,4.57-3.06,11.881,11.881,0,0,1,4.89-1.1,9.11,9.11,0,0,1,3.79.69,6.541,6.541,0,0,1,2.45,1.88,7.5,7.5,0,0,1,1.35,2.81,14.887,14.887,0,0,1,.4,3.59Z" fill="#002a4c"/></g></svg>